<?xml version="1.0" encoding="UTF-8"?>
<svg version="1.1" xmlns="http://www.w3.org/2000/svg" width="512" height="512">
<path d="M0 0 C3.76765953 0.69370592 5.00572714 1.92694105 7.19458008 5.09863281 C7.58411865 5.68483398 7.97365723 6.27103516 8.375 6.875 C9.25995428 8.16007104 10.14677676 9.44385694 11.03515625 10.7265625 C11.74889404 11.76345215 11.74889404 11.76345215 12.47705078 12.82128906 C15.17912967 16.68684725 18.00190573 20.46302062 20.8125 24.25 C25.41411584 30.4723421 29.97929547 36.71863635 34.5 43 C40.68076418 51.58376866 46.9478594 60.10201618 53.23388672 68.60888672 C56.74251746 73.35916726 60.24377596 78.11488612 63.74536133 82.87036133 C66.68186195 86.85751766 69.62220156 90.84173133 72.5703125 94.8203125 C80.19099198 105.11500606 87.66115426 115.50249355 95 126 C98.71655106 122.42331914 101.97671197 118.65112589 105.125 114.5625 C106.09626402 113.31373197 107.0676208 112.06503607 108.0390625 110.81640625 C108.53051758 110.18234863 109.02197266 109.54829102 109.52832031 108.89501953 C111.83901995 105.91962959 114.17002229 102.96029975 116.5 100 C117.41677461 98.83341816 118.33344103 97.66675128 119.25 96.5 C121.08333333 94.16666667 122.91666667 91.83333333 124.75 89.5 C125.20358887 88.92266113 125.65717773 88.34532227 126.12451172 87.75048828 C127.04263354 86.58205848 127.96092826 85.41376452 128.87939453 84.24560547 C131.15022369 81.35699494 133.41814946 78.46620452 135.6796875 75.5703125 C140.61406145 69.25965412 145.61226518 63.01060031 150.6875 56.8125 C155.6925451 50.69563199 160.46033269 44.4734833 165 38 C167.39750075 38.378895 168.68869992 38.67303336 170.38682556 40.45661926 C170.80565506 41.08557602 171.22448456 41.71453278 171.65600586 42.36254883 C172.14385056 43.08308945 172.63169525 43.80363007 173.13432312 44.54600525 C173.91668083 45.73946312 173.91668083 45.73946312 174.71484375 46.95703125 C175.27375809 47.79001236 175.83267242 48.62299347 176.40852356 49.48121643 C178.26270425 52.25101914 180.10006169 55.03156809 181.9375 57.8125 C183.23705691 59.76117914 184.53752697 61.70924959 185.83886719 63.65673828 C189.91029258 69.75948766 193.95811751 75.87765535 198 82 C198.63423889 82.96045227 199.26847778 83.92090454 199.92193604 84.91046143 C205.40386436 93.21471223 210.88214663 101.52133059 216.33422852 109.84521484 C222.27121604 118.89930224 228.26997815 127.90128438 234.4140625 136.81640625 C235.00606445 137.67854736 235.59806641 138.54068848 236.20800781 139.42895508 C239.012718 143.51331429 241.83014099 147.58740659 244.67480469 151.64404297 C245.66668704 153.08384759 246.6579361 154.52408877 247.6484375 155.96484375 C248.10828033 156.60853409 248.56812317 157.25222443 249.04190063 157.91542053 C252.08791664 162.39418608 252.08791664 162.39418608 251.60757446 165.70411682 C251.40707489 166.46175827 251.20657532 167.21939972 251 168 C243.50703445 168.10125241 236.01424467 168.17140327 228.52075195 168.21972656 C225.97055468 168.23986697 223.42040372 168.26718097 220.87036133 168.30175781 C217.20903103 168.35016739 213.54831018 168.37294474 209.88671875 168.390625 C208.17097908 168.42159271 208.17097908 168.42159271 206.420578 168.45318604 C205.35970474 168.45348816 204.29883148 168.45379028 203.20581055 168.45410156 C202.27093307 168.46298401 201.3360556 168.47186646 200.37284851 168.48101807 C198 168 198 168 196.26152039 166.10040283 C195.63706779 165.06070343 195.63706779 165.06070343 195 164 C194.54125488 163.32001953 194.08250977 162.64003906 193.60986328 161.93945312 C193.14306152 161.22724609 192.67625977 160.51503906 192.1953125 159.78125 C189.20250381 155.267143 186.06674689 150.87480531 182.875 146.5 C176.50202392 137.72333692 170.23499709 128.8750409 164 120 C158.86966257 126.69794053 153.94298769 133.44381294 149.32421875 140.5078125 C147.48047397 143.3090961 145.56982215 146.05885978 143.64453125 148.8046875 C143.05446289 149.65087646 142.46439453 150.49706543 141.85644531 151.36889648 C140.67867929 153.05524329 139.49461938 154.73721528 138.30371094 156.41430664 C137.76133789 157.19410889 137.21896484 157.97391113 136.66015625 158.77734375 C136.17168213 159.47077881 135.68320801 160.16421387 135.17993164 160.87866211 C133.86164663 163.24873836 133.39838732 165.33077579 133 168 C129.06280299 168.92555824 125.38577796 169.13749492 121.34545898 169.16113281 C120.69766479 169.16609772 120.04987061 169.17106262 119.38244629 169.17617798 C117.25365109 169.19070556 115.12493023 169.19758347 112.99609375 169.203125 C111.51066589 169.20888136 110.02523803 169.21463903 108.53981018 169.22039795 C105.43221696 169.23087915 102.32464941 169.23674157 99.21704102 169.24023438 C95.23674863 169.24573286 91.25679594 169.26980146 87.27661037 169.29820633 C84.21140037 169.31682816 81.14627261 169.32203791 78.08101082 169.32357025 C76.6133951 169.32659508 75.14578078 169.33461795 73.67822075 169.34775543 C71.62693132 169.36481769 69.57647815 169.36293667 67.52514648 169.35644531 C66.35886215 169.36009094 65.19257782 169.36373657 63.99095154 169.36749268 C60.69238815 168.9622043 59.3681595 168.27902932 57 166 C55.96594273 164.35424688 54.97216878 162.68305248 54 161 C52.12433195 158.39021237 50.15337292 155.85474377 48.1875 153.3125 C47.33514771 152.20406738 47.33514771 152.20406738 46.46557617 151.07324219 C41.09544607 144.09904725 35.68612669 137.15516559 30.27734375 130.2109375 C25.82563936 124.49374139 21.39209119 118.76319315 17 113 C16.48598633 112.32598145 15.97197266 111.65196289 15.44238281 110.95751953 C13.79071822 108.78733176 12.1445774 106.61306203 10.5 104.4375 C9.9829248 103.75800293 9.46584961 103.07850586 8.93310547 102.37841797 C8.44986816 101.73662598 7.96663086 101.09483398 7.46875 100.43359375 C6.82583008 99.58365845 6.82583008 99.58365845 6.16992188 98.71655273 C4.91967686 96.88214691 3.94938806 95.00429414 3 93 C2.34 93 1.68 93 1 93 C0.75507813 93.52980469 0.51015625 94.05960937 0.2578125 94.60546875 C-1.33873718 97.64486301 -3.21307229 100.46645351 -5.125 103.3125 C-5.76610718 104.27071655 -5.76610718 104.27071655 -6.42016602 105.24829102 C-11.87911092 113.36504252 -17.49626978 121.37308607 -23.09375 129.39453125 C-26.83674624 134.75967387 -30.55186701 140.14332536 -34.24951172 145.53979492 C-36.35446442 148.61089591 -38.46760068 151.67552618 -40.6015625 154.7265625 C-41.01672119 155.32130371 -41.43187988 155.91604492 -41.85961914 156.52880859 C-42.97862541 158.1299846 -44.10052443 159.72913788 -45.22265625 161.328125 C-46.68182306 163.52168566 -47.85515935 165.63925746 -49 168 C-58.52709487 168.23209219 -68.05321171 168.4095724 -77.58252048 168.51812172 C-82.00793622 168.5702322 -86.43141317 168.64085391 -90.85571289 168.75439453 C-95.12879781 168.86336341 -99.4000234 168.9229024 -103.67439079 168.94877243 C-105.3016888 168.96719673 -106.92888914 169.00318087 -108.55539131 169.05730057 C-121.29829304 169.46429092 -121.29829304 169.46429092 -125.49711609 165.85127258 C-127.29700101 163.30407071 -128.65770361 160.80920964 -130 158 C-130.93541051 156.61560296 -131.89322451 155.24566694 -132.88671875 153.90234375 C-133.34425537 153.25442871 -133.80179199 152.60651367 -134.27319336 151.93896484 C-134.73991455 151.27848145 -135.20663574 150.61799805 -135.6875 149.9375 C-136.72397155 148.47006142 -137.76042947 147.00261321 -138.796875 145.53515625 C-139.32216797 144.79152832 -139.84746094 144.04790039 -140.38867188 143.28173828 C-142.01504339 140.97869765 -143.64048207 138.67500147 -145.265625 136.37109375 C-145.79712158 135.61771729 -146.32861816 134.86434082 -146.8762207 134.08813477 C-147.88531304 132.65773258 -148.894274 131.2272377 -149.90307617 129.79663086 C-150.36689697 129.13928955 -150.83071777 128.48194824 -151.30859375 127.8046875 C-151.75315918 127.17272461 -152.19772461 126.54076172 -152.65576172 125.88964844 C-153.57817563 124.59297505 -154.51280049 123.30492772 -155.45751953 122.02441406 C-159 117.20405251 -159 117.20405251 -159 115 C-161.54603252 117.3406383 -163.27084816 119.8302255 -165.08203125 122.76953125 C-165.67806152 123.73084961 -166.2740918 124.69216797 -166.88818359 125.68261719 C-167.52320801 126.71547852 -168.15823242 127.74833984 -168.8125 128.8125 C-170.15394118 130.98109182 -171.49641442 133.14904551 -172.83984375 135.31640625 C-173.52546387 136.42258301 -174.21108398 137.52875977 -174.91748047 138.66845703 C-176.94282425 141.90853221 -178.99690715 145.12782438 -181.06640625 148.33984375 C-181.70666748 149.33459717 -182.34692871 150.32935059 -183.0065918 151.35424805 C-184.23169671 153.25297656 -185.46088878 155.14907553 -186.69458008 157.04223633 C-187.24654053 157.89970459 -187.79850098 158.75717285 -188.3671875 159.640625 C-189.09591064 160.76259277 -189.09591064 160.76259277 -189.83935547 161.90722656 C-191.0892886 163.94410276 -191.0892886 163.94410276 -191.53955078 166.20996094 C-191.69149902 166.80067383 -191.84344727 167.39138672 -192 168 C-194.3520006 169.1760003 -195.73734401 169.12084541 -198.35791016 169.11352539 C-199.70908432 169.11341209 -199.70908432 169.11341209 -201.08755493 169.11329651 C-202.06155243 169.10813522 -203.03554993 169.10297394 -204.0390625 169.09765625 C-205.03505463 169.0962413 -206.03104675 169.09482635 -207.05722046 169.09336853 C-210.24651053 169.08775936 -213.43573106 169.0752053 -216.625 169.0625 C-218.78385315 169.05748618 -220.94270741 169.05292307 -223.1015625 169.04882812 C-228.4010655 169.03778695 -233.70052778 169.02103988 -239 169 C-239.60644531 167.19213867 -239.60644531 167.19213867 -240 165 C-238.6762466 162.61056438 -237.33482887 160.51811836 -235.75 158.3125 C-234.81249038 156.95924111 -233.87634038 155.60503951 -232.94140625 154.25 C-232.4530127 153.54875 -231.96461914 152.8475 -231.46142578 152.125 C-229.12986162 148.73476705 -226.90974542 145.27497389 -224.6875 141.8125 C-223.75816296 140.37086777 -222.82846802 138.9294662 -221.8984375 137.48828125 C-221.4250293 136.75432129 -220.95162109 136.02036133 -220.46386719 135.26416016 C-218.45474653 132.15665766 -216.43372989 129.0569633 -214.41333008 125.95678711 C-209.06500167 117.74873026 -203.76680263 109.51059186 -198.5 101.25 C-191.19061216 89.79169881 -183.74731237 78.42406398 -176.26953125 67.07519531 C-175.63037277 66.10380615 -175.63037277 66.10380615 -174.978302 65.11279297 C-174.1457643 63.8492967 -173.31107675 62.587214 -172.47409058 61.32666016 C-170.57496909 58.45558977 -168.75129753 55.57863303 -167.00048828 52.61230469 C-166.40349121 51.60329102 -165.80649414 50.59427734 -165.19140625 49.5546875 C-164.68939697 48.67022949 -164.1873877 47.78577148 -163.67016602 46.87451172 C-162 45 -162 45 -159.43920898 44.56347656 C-157 45 -157 45 -154.78125 47.4296875 C-154.00446736 48.56711922 -153.245287 49.71668679 -152.5 50.875 C-151.62094486 52.17135565 -150.74067724 53.4668897 -149.859375 54.76171875 C-149.39595703 55.45313965 -148.93253906 56.14456055 -148.45507812 56.85693359 C-145.96544299 60.52371501 -143.35381956 64.10135889 -140.75 67.6875 C-139.93305664 68.81841064 -139.93305664 68.81841064 -139.09960938 69.97216797 C-134.52178255 76.30465077 -129.88684298 82.59420049 -125.24243164 88.87792969 C-121.18677291 94.37127287 -117.17576992 99.89507697 -113.1875 105.4375 C-108.20848993 112.35651112 -103.15288279 119.20937927 -98 126 C-93.91117385 122.11336855 -90.51238237 117.94124441 -87.125 113.4375 C-86.56546631 112.70007568 -86.00593262 111.96265137 -85.42944336 111.20288086 C-80.47561105 104.66316599 -75.57038041 98.08676472 -70.65869141 91.51538086 C-65.93763085 85.21317044 -61.12289073 78.99009109 -56.26977539 72.78930664 C-51.94149262 67.24538483 -47.70609872 61.63703953 -43.5 56 C-38.17907664 48.8688656 -32.77235813 41.81465666 -27.28491211 34.81103516 C-22.16122023 28.25334721 -17.17519478 21.5962802 -12.23632812 14.8984375 C-8.3849998 9.71215263 -4.33010675 4.79401734 0 0 Z " fill="#204446" transform="translate(252,293)"/>
<path d="M0 0 C3.92488093 3.70060202 7.02215543 7.4906925 10 12 C10 12.66 10 13.32 10 14 C10.74685059 13.95399658 11.49370117 13.90799316 12.26318359 13.8605957 C15.63307085 13.66195027 19.00377671 13.48693693 22.375 13.3125 C23.550625 13.23966797 24.72625 13.16683594 25.9375 13.09179688 C27.05898438 13.03701172 28.18046875 12.98222656 29.3359375 12.92578125 C30.89127197 12.83937378 30.89127197 12.83937378 32.47802734 12.7512207 C33.31027832 12.83331787 34.1425293 12.91541504 35 13 C35.99 14.485 35.99 14.485 37 16 C36.68659668 16.51908936 36.37319336 17.03817871 36.05029297 17.57299805 C34.63941884 19.93367117 33.25718349 22.30992442 31.875 24.6875 C31.38128906 25.50412109 30.88757813 26.32074219 30.37890625 27.16210938 C27.67120396 31.58722886 27.67120396 31.58722886 27.33203125 36.55859375 C27.88246094 37.36425781 28.43289063 38.16992188 29 39 C29.40541016 39.61286865 29.81082031 40.2257373 30.22851562 40.85717773 C31.71340736 43.06326602 33.25459613 45.21993105 34.8125 47.375 C35.59463867 48.46941406 35.59463867 48.46941406 36.39257812 49.5859375 C39.41237413 53.81488597 39.41237413 53.81488597 42.50146484 57.99316406 C46 62.68665183 46 62.68665183 46 66 C36.76 66.66 27.52 67.32 18 68 C19.19625 69.98 20.3925 71.96 21.625 74 C30.79964871 89.25941667 39.67919177 104.6948906 48.5625 120.125 C53.63436501 128.93252365 58.75579945 137.70799454 63.93896484 146.45043945 C68.17124492 153.58991587 72.37601932 160.7451475 76.57098389 167.90658569 C77.68189097 169.80292527 78.79327425 171.69898499 79.90478516 173.5949707 C82.89089851 178.68922237 85.87606505 183.78397535 88.84765625 188.88671875 C94.21679816 198.0912655 99.77823799 207.1664656 105.40625 216.21484375 C109.13998809 222.21804708 112.84876839 228.23651073 116.55316162 234.25784302 C117.60426599 235.96629911 118.65588757 237.67443697 119.70751953 239.38256836 C120.6760083 240.95663452 120.6760083 240.95663452 121.6640625 242.5625 C122.23592285 243.49191406 122.8077832 244.42132813 123.39697266 245.37890625 C123.92597168 246.24386719 124.4549707 247.10882813 125 248 C125.55324951 248.89098389 126.10649902 249.78196777 126.67651367 250.69995117 C128.65029122 254.13012242 128.66850737 257.08838695 129 261 C123.31502979 260.40115616 118.59727527 258.31401835 113.41796875 256.046875 C112.47142426 255.63900253 111.52487976 255.23113007 110.5496521 254.81089783 C107.42624138 253.46340498 104.30692254 252.10669672 101.1875 250.75 C99.00477213 249.80636204 96.82174334 248.86341988 94.63842773 247.92114258 C90.07585868 245.95148717 85.51462036 243.97879196 80.95410156 242.00439453 C74.14074346 239.0574614 67.31803636 236.13270995 60.4921875 233.21484375 C59.40104141 232.74827362 58.30989532 232.28170349 57.1856842 231.80099487 C52.95915727 229.99398644 48.73247666 228.18733849 44.50546265 226.38146973 C42.53779951 225.54050031 40.57040144 224.69891041 38.60328674 223.85665894 C36.72975489 223.05452079 34.85561562 222.25379961 32.9808197 221.45462036 C28.54848121 219.55763787 24.14385262 217.61940434 19.77294922 215.58447266 C18.53785866 215.01476494 18.53785866 215.01476494 17.27781677 214.43354797 C15.7430439 213.72186741 14.21333482 212.99911538 12.69007874 212.2631073 C7.60021309 209.90968472 4.98228767 209.99864914 -0.20579529 211.7406311 C-1.32293663 212.17573502 -1.32293663 212.17573502 -2.46264648 212.61962891 C-3.32209869 212.95211136 -4.1815509 213.28459381 -5.06704712 213.62715149 C-5.99238251 213.98995712 -6.9177179 214.35276276 -7.87109375 214.7265625 C-9.33692398 215.29584724 -9.33692398 215.29584724 -10.83236694 215.87663269 C-14.03567447 217.12203037 -17.23660979 218.37340389 -20.4375 219.625 C-22.66680885 220.49334448 -24.89622063 221.36142476 -27.12573242 222.22924805 C-39.60388757 227.09069329 -52.06904328 231.98494925 -64.52304077 236.90792847 C-66.8037125 237.80902803 -69.08500422 238.70854113 -71.36645508 239.60766602 C-78.46402621 242.40658623 -85.55529138 245.21923302 -92.63108826 248.0728302 C-95.98673015 249.4231214 -99.34717333 250.76116849 -102.70858765 252.09701538 C-104.30526515 252.73497254 -105.89974748 253.37845456 -107.49185181 254.02774048 C-109.67933088 254.9193239 -111.87355131 255.79174731 -114.0703125 256.66015625 C-115.03932243 257.06346161 -115.03932243 257.06346161 -116.02790833 257.47491455 C-118.9022187 258.59059176 -120.46258474 259.18857527 -123.43310547 258.14624023 C-123.95018066 257.76798096 -124.46725586 257.38972168 -125 257 C-124.36096345 253.81649324 -123.24208662 251.45916208 -121.55859375 248.69140625 C-121.06182129 247.86922607 -120.56504883 247.0470459 -120.05322266 246.19995117 C-119.25343994 244.89441284 -119.25343994 244.89441284 -118.4375 243.5625 C-117.88884277 242.65798096 -117.34018555 241.75346191 -116.77490234 240.8215332 C-115.18909091 238.21074608 -113.59626551 235.60440546 -112 233 C-110.96939453 231.31777344 -110.96939453 231.31777344 -109.91796875 229.6015625 C-108.69619245 227.61584328 -107.4721402 225.63152303 -106.24609375 223.6484375 C-103.20316409 218.71743359 -100.19834062 213.7631328 -97.1875 208.8125 C-92.96528394 201.87072941 -88.73961554 194.93115898 -84.5 188 C-80.32403642 181.17231117 -76.16004119 174.33740103 -72 167.5 C-64.16047216 154.61745782 -56.30887512 141.7429817 -48.39648438 128.9050293 C-41.56779699 117.82490671 -34.78489292 106.71891766 -28.04171753 95.58660889 C-22.43953729 86.34050931 -16.76262981 77.14703144 -11 68 C-21.56 68 -32.12 68 -43 68 C-42.02146766 63.10733828 -40.45280487 60.18103135 -37.74609375 56.16796875 C-37.32578384 55.53135818 -36.90547394 54.89474762 -36.47242737 54.23884583 C-35.13487761 52.21668874 -33.78641238 50.20209066 -32.4375 48.1875 C-31.52596138 46.81363599 -30.61514582 45.43929194 -29.70507812 44.06445312 C-27.47838842 40.70401787 -25.24188357 37.35031591 -23 34 C-24.11336123 32.23881017 -25.22823704 30.47857774 -26.34375 28.71875 C-26.96443359 27.73841797 -27.58511719 26.75808594 -28.22460938 25.74804688 C-29.60066977 23.61810521 -31.01940887 21.55623251 -32.5 19.5 C-32.995 18.675 -33.49 17.85 -34 17 C-33.505 15.515 -33.505 15.515 -33 14 C-32.30438965 14.01683838 -31.6087793 14.03367676 -30.89208984 14.05102539 C-27.71849672 14.10151317 -24.54889874 14.08263431 -21.375 14.0625 C-20.28058594 14.09021484 -19.18617188 14.11792969 -18.05859375 14.14648438 C-11.93011758 14.14916967 -11.93011758 14.14916967 -6.92285156 11.03076172 C-4.72401369 7.78770585 -3.23785984 4.71357952 -2 1 C-1.34 0.67 -0.68 0.34 0 0 Z " fill="#46898F" transform="translate(250,48)"/>
<path d="M0 0 C3.92488093 3.70060202 7.02215543 7.4906925 10 12 C10 12.66 10 13.32 10 14 C10.74685059 13.95399658 11.49370117 13.90799316 12.26318359 13.8605957 C15.63307085 13.66195027 19.00377671 13.48693693 22.375 13.3125 C23.550625 13.23966797 24.72625 13.16683594 25.9375 13.09179688 C27.05898438 13.03701172 28.18046875 12.98222656 29.3359375 12.92578125 C30.89127197 12.83937378 30.89127197 12.83937378 32.47802734 12.7512207 C33.31027832 12.83331787 34.1425293 12.91541504 35 13 C35.99 14.485 35.99 14.485 37 16 C36.52989502 16.77863403 36.52989502 16.77863403 36.05029297 17.57299805 C34.63941884 19.93367117 33.25718349 22.30992442 31.875 24.6875 C31.38128906 25.50412109 30.88757813 26.32074219 30.37890625 27.16210938 C27.67120396 31.58722886 27.67120396 31.58722886 27.33203125 36.55859375 C28.15767578 37.76708984 28.15767578 37.76708984 29 39 C29.40541016 39.61286865 29.81082031 40.2257373 30.22851562 40.85717773 C31.71340736 43.06326602 33.25459613 45.21993105 34.8125 47.375 C35.59463867 48.46941406 35.59463867 48.46941406 36.39257812 49.5859375 C39.41237413 53.81488597 39.41237413 53.81488597 42.50146484 57.99316406 C46 62.68665183 46 62.68665183 46 66 C36.76 66.66 27.52 67.32 18 68 C19.19625 69.98 20.3925 71.96 21.625 74 C30.79964871 89.25941667 39.67919177 104.6948906 48.5625 120.125 C53.63436501 128.93252365 58.75579945 137.70799454 63.93896484 146.45043945 C68.17124492 153.58991587 72.37601932 160.7451475 76.57098389 167.90658569 C77.68189097 169.80292527 78.79327425 171.69898499 79.90478516 173.5949707 C82.89089851 178.68922237 85.87606505 183.78397535 88.84765625 188.88671875 C94.21679816 198.0912655 99.77823799 207.1664656 105.40625 216.21484375 C109.13998809 222.21804708 112.84876839 228.23651073 116.55316162 234.25784302 C117.60426599 235.96629911 118.65588757 237.67443697 119.70751953 239.38256836 C120.6760083 240.95663452 120.6760083 240.95663452 121.6640625 242.5625 C122.23592285 243.49191406 122.8077832 244.42132813 123.39697266 245.37890625 C123.92597168 246.24386719 124.4549707 247.10882813 125 248 C125.56380371 248.87527344 126.12760742 249.75054687 126.70849609 250.65234375 C128 253 128 253 128 256 C123.63751449 255.49398235 121.68051473 254.16195716 118.5625 251.125 C114.58213419 247.39266885 110.50127014 243.95461523 106.1875 240.625 C101.53099471 237.01862086 96.97181814 233.33308446 92.5 229.5 C87.60654147 225.31142459 82.60478702 221.29641046 77.52050781 217.3425293 C71.94196301 212.9893874 66.48819604 208.49111805 61.03613281 203.98120117 C57.38003887 200.95789272 53.71522762 197.95069949 50 195 C44.7846165 190.85785018 39.66609093 186.60027357 34.53491211 182.35473633 C28.91978038 177.72310531 23.21621058 173.22345067 17.44140625 168.79296875 C16.915504 168.34728546 16.38960175 167.90160217 15.84776306 167.44241333 C13.96869682 165.89710719 13.96869682 165.89710719 11.51075745 164.62765503 C7.40016468 161.91732494 4.59224394 159.48682909 3.43998146 154.64848518 C2.54990531 147.22211613 2.8553862 139.73873794 3.0234375 132.27734375 C3.04210393 129.84642959 3.05633137 127.41547765 3.0663147 124.98451233 C3.10437694 118.60652597 3.20250257 112.23084092 3.31335449 105.85375977 C3.41591268 99.33837004 3.46137916 92.82260601 3.51171875 86.30664062 C3.61875459 73.53678231 3.78733943 60.76851392 4 48 C3.34 48 2.68 48 2 48 C1.75378906 48.68578125 1.50757813 49.3715625 1.25390625 50.078125 C-0.2171342 53.50597004 -2.0842971 56.60044618 -4.0625 59.75 C-4.42666016 60.33910156 -4.79082031 60.92820313 -5.16601562 61.53515625 C-7.84776311 65.84776311 -7.84776311 65.84776311 -9 67 C-20.14284999 68.80875922 -31.75796549 68.097535 -43 68 C-42.46971656 63.30486269 -40.32915785 59.99770804 -37.74609375 56.16796875 C-37.32578384 55.53135818 -36.90547394 54.89474762 -36.47242737 54.23884583 C-35.13487761 52.21668874 -33.78641238 50.20209066 -32.4375 48.1875 C-31.52596138 46.81363599 -30.61514582 45.43929194 -29.70507812 44.06445312 C-27.47838842 40.70401787 -25.24188357 37.35031591 -23 34 C-24.11336123 32.23881017 -25.22823704 30.47857774 -26.34375 28.71875 C-26.96443359 27.73841797 -27.58511719 26.75808594 -28.22460938 25.74804688 C-29.60066977 23.61810521 -31.01940887 21.55623251 -32.5 19.5 C-33.2425 18.2625 -33.2425 18.2625 -34 17 C-33.67 16.01 -33.34 15.02 -33 14 C-32.30438965 14.01683838 -31.6087793 14.03367676 -30.89208984 14.05102539 C-27.71849672 14.10151317 -24.54889874 14.08263431 -21.375 14.0625 C-20.28058594 14.09021484 -19.18617188 14.11792969 -18.05859375 14.14648438 C-11.93011758 14.14916967 -11.93011758 14.14916967 -6.92285156 11.03076172 C-4.72401369 7.78770585 -3.23785984 4.71357952 -2 1 C-1.34 0.67 -0.68 0.34 0 0 Z " fill="#66A4A7" transform="translate(250,48)"/>
<path d="M0 0 C3.36713786 1.3821893 5.80313622 3.50419026 8.46875 5.9140625 C9.62175355 6.9240989 10.77676824 7.93184327 11.93359375 8.9375 C12.52640137 9.4540918 13.11920898 9.97068359 13.72998047 10.50292969 C16.59076985 12.942627 19.55750538 15.23952719 22.53125 17.5390625 C27.77052601 21.60872088 32.86912439 25.81252761 37.91357422 30.12060547 C41.91045978 33.52989376 45.97842693 36.83309708 50.09375 40.09765625 C52.63237942 42.11960949 55.1465833 44.16878519 57.65625 46.2265625 C72.09123549 58.06527634 72.09123549 58.06527634 86.71875 69.6640625 C91.88595299 73.69177472 96.91699239 77.85379317 101.89892578 82.10791016 C112.50708602 91.60492381 112.50708602 91.60492381 124.53125 99.0390625 C124.53125 100.3590625 124.53125 101.6790625 124.53125 103.0390625 C118.84627979 102.44021866 114.12852527 100.35308085 108.94921875 98.0859375 C108.00267426 97.67806503 107.05612976 97.27019257 106.0809021 96.84996033 C102.95749138 95.50246748 99.83817254 94.14575922 96.71875 92.7890625 C94.53602213 91.84542454 92.35299334 90.90248238 90.16967773 89.96020508 C85.60710868 87.99054967 81.04587036 86.01785446 76.48535156 84.04345703 C69.67199346 81.0965239 62.84928636 78.17177245 56.0234375 75.25390625 C54.93229141 74.78733612 53.84114532 74.32076599 52.7169342 73.84005737 C48.49040727 72.03304894 44.26372666 70.22640099 40.03671265 68.42053223 C38.06904951 67.57956281 36.10165144 66.73797291 34.13453674 65.89572144 C32.26100489 65.09358329 30.38686562 64.29286211 28.5120697 63.49368286 C24.07973121 61.59670037 19.67510262 59.65846684 15.30419922 57.62353516 C14.48080551 57.24373001 13.6574118 56.86392487 12.80906677 56.47261047 C11.2742939 55.76092991 9.74458482 55.03817788 8.22132874 54.3021698 C3.13146309 51.94874722 0.51353767 52.03771164 -4.67454529 53.7796936 C-5.41930618 54.06976288 -6.16406708 54.35983215 -6.93139648 54.65869141 C-7.79084869 54.99117386 -8.6503009 55.32365631 -9.53579712 55.66621399 C-10.46113251 56.02901962 -11.3864679 56.39182526 -12.33984375 56.765625 C-13.3170639 57.14514816 -14.29428406 57.52467133 -15.30111694 57.91569519 C-18.50442447 59.16109287 -21.70535979 60.41246639 -24.90625 61.6640625 C-27.13555885 62.53240698 -29.36497063 63.40048726 -31.59448242 64.26831055 C-46.35557397 70.01917976 -61.09737186 75.81871583 -75.82641602 81.65112305 C-92.34416897 88.19001116 -108.90450511 94.61903301 -125.46875 101.0390625 C-126.12875 100.3790625 -126.78875 99.7190625 -127.46875 99.0390625 C-121.01028106 93.06456152 -114.18810072 87.67269053 -107.19238281 82.35546875 C-99.22854901 76.27317529 -91.41157116 70.00898059 -83.65625 63.6640625 C-78.19569808 59.19753988 -72.65668984 54.85828533 -67.03125 50.6015625 C-60.40314848 45.58465334 -53.96219479 40.37780535 -47.56933594 35.06542969 C-42.35264658 30.73957174 -37.04194547 26.57104409 -31.6484375 22.46875 C-28.8048532 20.30549989 -25.99505219 18.10177444 -23.19189453 15.88647461 C-21.4340502 14.49851303 -19.6707933 13.11771186 -17.90625 11.73828125 C-15.61804013 9.94899949 -13.35102347 8.13669519 -11.09375 6.30859375 C-10.0317123 5.46816547 -8.96923309 4.62829472 -7.90625 3.7890625 C-6.51212891 2.66757813 -6.51212891 2.66757813 -5.08984375 1.5234375 C-2.46875 0.0390625 -2.46875 0.0390625 0 0 Z " fill="#214547" transform="translate(254.46875,205.9609375)"/>
</svg>
