<svg id="svg" version="1.1" xmlns="http://www.w3.org/2000/svg" xmlns:xlink="http://www.w3.org/1999/xlink" width="400" height="400" viewBox="0, 0, 400,400"><g id="svgg"><path id="path0" d="M194.969 37.906 C 194.433 37.991,193.880 38.636,193.415 39.719 C 193.017 40.643,192.393 41.760,192.028 42.200 C 191.662 42.640,191.120 43.489,190.821 44.086 C 190.523 44.684,190.127 45.078,189.940 44.963 C 189.753 44.847,189.600 45.042,189.600 45.395 C 189.600 47.670,188.262 48.000,179.051 48.000 C 170.170 48.000,169.200 48.103,169.200 49.043 C 169.200 49.349,169.020 49.600,168.800 49.600 C 168.580 49.600,168.400 49.870,168.400 50.200 C 168.400 50.530,168.580 50.800,168.800 50.800 C 169.020 50.800,169.200 51.126,169.200 51.525 C 169.200 51.923,169.560 52.636,170.000 53.108 C 170.440 53.580,170.800 54.154,170.800 54.383 C 170.800 54.612,170.980 54.800,171.200 54.800 C 171.420 54.800,171.600 55.081,171.600 55.424 C 171.600 55.767,171.753 55.953,171.940 55.837 C 172.127 55.722,172.530 56.116,172.837 56.714 C 173.144 57.311,173.711 58.091,174.097 58.447 C 174.484 58.803,174.800 59.348,174.800 59.659 C 174.800 59.969,175.150 60.476,175.579 60.785 C 176.007 61.093,176.266 61.493,176.155 61.673 C 176.044 61.853,176.100 62.000,176.280 62.000 C 177.902 62.000,177.037 65.762,174.917 67.929 C 174.633 68.219,174.400 68.596,174.400 68.766 C 174.400 68.936,173.950 69.599,173.400 70.238 C 172.851 70.877,172.401 71.548,172.400 71.728 C 172.400 72.163,169.937 75.763,169.523 75.933 C 169.345 76.007,169.200 76.283,169.200 76.548 C 169.200 76.813,168.667 77.653,168.016 78.415 C 167.365 79.177,166.825 79.997,166.816 80.238 C 166.807 80.479,166.440 81.002,166.000 81.400 C 165.560 81.798,165.200 82.366,165.200 82.662 C 165.200 82.958,165.049 83.200,164.864 83.200 C 164.680 83.200,164.320 83.657,164.066 84.215 C 163.812 84.773,163.419 85.448,163.194 85.715 C 158.945 90.752,159.507 90.990,174.878 90.663 C 185.710 90.432,187.147 90.472,186.944 91.001 C 186.818 91.330,186.559 91.600,186.370 91.600 C 186.180 91.600,186.138 91.915,186.276 92.300 C 186.414 92.685,186.380 92.867,186.201 92.703 C 185.701 92.250,184.010 94.909,184.452 95.453 C 184.692 95.749,184.601 95.991,184.189 96.149 C 183.779 96.306,183.657 96.231,183.841 95.934 C 184.019 95.645,183.946 95.586,183.643 95.774 C 183.378 95.937,183.212 96.370,183.274 96.735 C 183.336 97.101,183.251 97.441,183.086 97.492 C 182.244 97.747,181.718 98.706,181.874 99.698 C 181.977 100.348,181.864 100.800,181.600 100.800 C 181.354 100.800,181.264 100.620,181.400 100.400 C 181.768 99.804,181.226 99.917,180.571 100.571 C 179.848 101.295,179.820 101.848,180.537 101.252 C 180.832 101.007,181.192 100.925,181.337 101.070 C 181.694 101.428,181.670 102.011,181.300 101.953 C 180.389 101.809,179.658 102.073,179.447 102.621 C 179.316 102.962,179.355 103.152,179.532 103.042 C 179.710 102.932,179.777 103.373,179.682 104.021 C 179.579 104.723,179.267 105.200,178.912 105.200 C 178.536 105.200,178.403 104.969,178.553 104.579 C 178.693 104.214,178.623 104.062,178.385 104.209 C 178.161 104.347,178.012 104.672,178.052 104.930 C 178.173 105.698,177.553 106.800,177.000 106.800 C 176.717 106.800,176.378 107.079,176.247 107.421 C 176.116 107.762,176.167 107.944,176.359 107.825 C 176.552 107.706,176.935 107.881,177.211 108.214 C 177.625 108.712,177.607 108.778,177.108 108.586 C 176.553 108.373,175.959 109.115,175.816 110.200 C 175.787 110.420,175.568 110.562,175.329 110.516 C 175.090 110.469,174.918 110.737,174.947 111.111 C 174.976 111.485,174.593 111.972,174.095 112.193 C 173.596 112.414,173.276 112.821,173.382 113.097 C 173.692 113.905,173.161 114.985,172.767 114.347 C 172.433 113.807,171.600 115.434,171.600 116.626 C 171.600 116.942,171.326 117.200,170.992 117.200 C 170.563 117.200,170.437 117.492,170.565 118.193 C 170.664 118.740,170.574 119.292,170.366 119.421 C 170.157 119.550,170.068 119.786,170.167 119.947 C 170.601 120.649,169.678 121.363,169.030 120.825 C 168.640 120.501,168.400 120.466,168.400 120.731 C 168.400 120.967,168.715 121.358,169.100 121.599 C 169.702 121.977,169.672 122.003,168.890 121.789 C 168.389 121.652,168.025 121.688,168.080 121.870 C 168.135 122.051,167.688 122.723,167.086 123.363 C 165.965 124.554,165.895 125.317,166.990 124.408 C 167.977 123.589,167.688 124.276,166.578 125.385 C 166.017 125.947,165.667 126.585,165.802 126.803 C 166.030 127.172,165.468 127.380,164.651 127.231 C 164.459 127.196,164.416 127.465,164.555 127.828 C 164.739 128.306,164.642 128.425,164.205 128.257 C 163.872 128.129,163.600 128.199,163.600 128.413 C 163.600 128.626,163.825 128.803,164.100 128.806 C 164.432 128.810,164.398 128.940,164.000 129.192 C 163.670 129.400,163.392 129.802,163.382 130.085 C 163.372 130.368,163.102 130.540,162.782 130.467 C 162.462 130.393,162.329 130.462,162.486 130.619 C 162.643 130.777,162.598 131.231,162.385 131.629 C 162.084 132.191,162.196 132.492,162.888 132.976 C 163.377 133.319,163.569 133.600,163.313 133.600 C 163.057 133.600,162.749 133.442,162.630 133.248 C 162.016 132.256,160.838 132.490,161.053 133.563 C 161.230 134.450,161.076 134.728,160.180 135.136 C 159.166 135.598,159.140 135.668,159.806 136.155 C 160.304 136.519,160.381 136.764,160.061 136.963 C 159.807 137.119,159.600 137.046,159.600 136.800 C 159.600 136.554,159.417 136.466,159.193 136.604 C 158.970 136.742,158.878 137.002,158.989 137.182 C 159.100 137.362,158.815 137.607,158.355 137.728 C 157.896 137.848,157.627 138.119,157.757 138.331 C 157.888 138.543,157.706 138.827,157.353 138.963 C 156.832 139.163,156.804 139.323,157.204 139.805 C 157.547 140.218,157.561 140.400,157.249 140.400 C 157.002 140.400,156.800 140.670,156.800 141.000 C 156.800 141.330,156.575 141.555,156.300 141.500 C 155.985 141.437,155.849 141.750,155.933 142.344 C 156.017 142.943,155.907 143.190,155.633 143.020 C 155.395 142.873,155.200 142.954,155.200 143.200 C 155.200 143.446,155.022 143.537,154.805 143.403 C 154.578 143.263,154.511 143.423,154.647 143.779 C 154.778 144.121,155.046 144.400,155.243 144.400 C 155.439 144.400,155.597 144.715,155.594 145.100 C 155.589 145.648,155.513 145.681,155.242 145.255 C 154.951 144.794,154.863 144.794,154.679 145.255 C 154.498 145.708,154.397 145.710,154.086 145.266 C 153.576 144.540,153.329 145.279,153.370 147.414 C 153.393 148.677,153.252 149.029,152.722 149.029 C 152.209 149.029,152.150 148.901,152.479 148.505 C 152.718 148.216,152.798 147.865,152.657 147.724 C 152.516 147.582,152.400 147.696,152.400 147.976 C 152.400 148.276,152.140 148.386,151.767 148.243 C 151.245 148.043,151.168 148.245,151.323 149.400 C 151.467 150.466,151.368 150.800,150.907 150.800 C 150.388 150.800,150.380 150.700,150.851 150.100 C 151.345 149.470,151.332 149.453,150.722 149.931 C 150.222 150.322,150.133 150.698,150.384 151.359 C 150.670 152.110,150.592 152.251,149.907 152.228 C 149.399 152.211,149.045 152.488,148.971 152.960 C 148.906 153.378,148.616 153.873,148.327 154.060 C 147.892 154.341,147.893 154.460,148.334 154.744 C 148.859 155.083,148.122 155.652,147.000 155.774 C 146.780 155.798,146.653 156.131,146.719 156.514 C 146.784 156.897,146.560 157.317,146.221 157.447 C 145.882 157.577,145.704 157.845,145.826 158.042 C 145.948 158.239,145.745 158.400,145.375 158.400 C 144.809 158.400,144.785 158.500,145.223 159.028 C 145.666 159.561,145.573 159.791,144.607 160.561 C 143.938 161.095,143.590 161.660,143.761 161.937 C 143.925 162.202,143.779 162.510,143.425 162.646 C 143.081 162.778,142.800 163.204,142.800 163.594 C 142.800 163.983,142.522 164.533,142.182 164.815 C 141.842 165.097,141.666 165.595,141.791 165.921 C 141.987 166.431,141.924 166.436,141.332 165.957 C 140.878 165.588,140.748 165.569,140.947 165.900 C 141.116 166.181,141.051 166.400,140.800 166.400 C 140.554 166.400,140.461 166.575,140.593 166.788 C 140.936 167.344,139.684 169.600,139.033 169.600 C 138.732 169.600,138.378 169.879,138.247 170.221 C 138.086 170.642,138.168 170.746,138.505 170.544 C 138.833 170.347,138.815 170.475,138.451 170.923 C 138.058 171.408,138.038 171.600,138.380 171.600 C 138.971 171.600,137.789 172.829,136.631 173.418 C 136.149 173.663,135.813 174.209,135.832 174.720 C 135.866 175.674,135.394 175.907,135.060 175.100 C 134.946 174.825,134.925 175.292,135.013 176.138 C 135.153 177.478,135.095 177.611,134.564 177.170 C 134.066 176.757,133.977 176.768,134.077 177.232 C 134.145 177.545,133.975 177.755,133.700 177.700 C 133.104 177.581,133.030 178.248,133.600 178.600 C 133.820 178.736,134.000 179.039,134.000 179.273 C 134.000 179.549,133.799 179.531,133.425 179.221 C 132.956 178.832,132.732 178.970,132.215 179.972 C 131.427 181.496,131.751 181.612,132.571 180.100 C 132.899 179.495,133.175 179.201,133.184 179.446 C 133.193 179.691,132.840 180.350,132.400 180.909 C 131.960 181.469,131.587 182.168,131.572 182.463 C 131.556 182.758,131.389 182.640,131.200 182.200 C 130.878 181.451,130.854 181.448,130.828 182.153 C 130.813 182.567,130.412 183.242,129.939 183.653 C 129.231 184.267,129.195 184.400,129.739 184.400 C 130.102 184.400,130.400 184.601,130.400 184.847 C 130.400 185.096,130.047 185.201,129.599 185.084 C 129.159 184.969,128.890 185.022,129.002 185.203 C 129.114 185.384,128.979 185.608,128.702 185.701 C 128.304 185.835,128.308 186.001,128.723 186.503 C 129.175 187.051,129.134 187.108,128.423 186.922 C 127.955 186.800,127.600 186.899,127.600 187.153 C 127.600 187.399,127.764 187.600,127.965 187.600 C 128.165 187.600,128.281 187.915,128.223 188.300 C 128.151 188.778,127.830 188.958,127.215 188.867 C 126.690 188.790,126.416 188.902,126.559 189.133 C 126.694 189.352,126.579 189.623,126.302 189.735 C 125.922 189.890,125.946 190.042,126.400 190.363 C 126.919 190.731,126.908 190.789,126.313 190.794 C 125.837 190.798,125.704 191.005,125.881 191.466 C 126.051 191.910,125.982 192.036,125.673 191.845 C 125.379 191.663,125.289 191.767,125.427 192.127 C 125.563 192.480,125.319 192.780,124.782 192.921 C 124.305 193.045,124.037 193.337,124.183 193.573 C 124.328 193.808,124.276 194.000,124.066 194.000 C 123.857 194.000,123.583 194.268,123.457 194.595 C 123.332 194.923,123.357 195.171,123.514 195.148 C 124.531 194.996,124.392 195.331,123.063 196.235 C 122.226 196.803,121.622 197.479,121.720 197.737 C 121.946 198.323,121.000 199.248,120.556 198.876 C 120.375 198.724,120.443 198.886,120.708 199.235 C 121.108 199.762,121.019 199.962,120.190 200.405 C 119.515 200.766,119.262 201.166,119.412 201.636 C 119.533 202.019,119.447 202.447,119.221 202.587 C 118.967 202.744,118.907 202.565,119.063 202.121 C 119.245 201.606,119.190 201.516,118.872 201.807 C 118.627 202.030,118.384 202.775,118.332 203.463 C 118.275 204.202,118.051 204.641,117.782 204.538 C 117.533 204.442,117.074 204.676,116.764 205.059 C 116.409 205.496,116.384 205.643,116.695 205.456 C 117.026 205.257,117.116 205.354,116.964 205.748 C 116.840 206.073,116.496 206.431,116.200 206.545 C 115.872 206.670,115.742 207.113,115.866 207.676 C 116.006 208.312,115.954 208.438,115.699 208.081 C 115.041 207.157,114.304 208.497,114.782 209.751 C 115.201 210.855,115.065 210.961,113.400 210.828 C 112.839 210.783,112.751 210.867,113.104 211.108 C 113.484 211.367,113.357 211.688,112.594 212.406 C 111.437 213.493,110.315 215.539,110.613 216.021 C 110.723 216.199,110.602 216.475,110.345 216.634 C 110.033 216.827,109.984 216.749,110.200 216.400 C 110.411 216.058,110.367 215.973,110.073 216.155 C 109.564 216.469,108.410 218.757,108.200 219.869 C 108.124 220.271,108.025 220.645,107.981 220.700 C 107.936 220.755,107.878 220.977,107.850 221.192 C 107.822 221.408,107.383 221.877,106.873 222.234 C 106.363 222.591,106.037 223.120,106.148 223.409 C 106.401 224.067,105.043 225.690,104.573 225.293 C 104.382 225.132,104.490 225.344,104.813 225.765 C 105.271 226.362,105.288 226.568,104.892 226.701 C 104.612 226.795,104.113 227.395,103.783 228.033 C 103.453 228.672,103.035 229.150,102.856 229.097 C 102.676 229.044,102.034 229.585,101.429 230.300 C 100.769 231.080,100.539 231.600,100.853 231.600 C 101.142 231.600,100.989 231.873,100.513 232.206 C 99.611 232.838,99.567 234.285,100.433 234.821 C 100.725 235.001,100.743 235.188,100.485 235.348 C 100.264 235.484,99.976 235.315,99.845 234.972 C 99.713 234.630,99.407 234.472,99.164 234.622 C 98.864 234.808,98.935 235.103,99.387 235.547 C 100.002 236.152,100.105 236.134,100.776 235.317 C 101.175 234.831,101.575 234.508,101.665 234.599 C 101.756 234.689,102.062 234.393,102.345 233.940 C 102.768 233.262,102.766 233.170,102.330 233.422 C 102.038 233.591,101.933 233.581,102.097 233.401 C 102.260 233.221,102.178 232.787,101.916 232.437 C 101.516 231.904,101.530 231.881,101.999 232.300 C 103.018 233.208,105.875 232.009,104.934 231.068 C 104.787 230.920,104.986 230.800,105.376 230.800 C 105.765 230.800,106.650 230.347,107.342 229.794 C 109.186 228.319,109.273 228.253,110.799 227.182 C 111.569 226.642,112.490 225.885,112.846 225.500 C 113.202 225.115,113.688 224.800,113.924 224.800 C 114.161 224.800,114.590 224.485,114.877 224.100 C 115.165 223.715,116.059 222.907,116.865 222.306 C 117.671 221.704,118.610 220.933,118.951 220.592 C 119.292 220.251,119.682 219.993,119.818 220.020 C 119.954 220.047,120.850 219.334,121.809 218.435 C 122.768 217.536,123.719 216.800,123.922 216.800 C 124.125 216.800,124.720 216.384,125.245 215.876 C 125.770 215.367,127.820 213.712,129.800 212.198 C 133.979 209.003,134.920 208.118,134.633 207.653 C 134.518 207.467,134.869 207.401,135.412 207.504 C 135.964 207.610,136.400 207.505,136.400 207.266 C 136.400 207.031,137.255 206.256,138.300 205.544 C 139.345 204.833,140.491 203.924,140.847 203.525 C 141.203 203.126,141.613 202.800,141.758 202.800 C 141.903 202.800,143.609 201.450,145.549 199.800 C 147.489 198.150,149.275 196.800,149.518 196.800 C 149.761 196.800,150.104 196.570,150.280 196.289 C 150.721 195.584,154.000 193.063,154.000 193.429 C 154.000 193.591,154.449 193.201,154.999 192.562 C 155.548 191.923,156.133 191.397,156.299 191.393 C 156.608 191.386,157.386 190.770,159.941 188.509 C 160.744 187.799,161.559 187.214,161.753 187.209 C 161.947 187.204,162.397 186.880,162.753 186.488 C 163.478 185.690,169.627 180.821,172.155 179.043 C 173.060 178.407,174.081 177.563,174.425 177.168 C 174.769 176.773,175.309 176.394,175.625 176.325 C 175.941 176.256,176.435 175.885,176.723 175.500 C 177.010 175.115,177.527 174.800,177.872 174.800 C 178.387 174.800,178.409 174.692,177.992 174.191 C 177.569 173.680,177.595 173.623,178.155 173.838 C 178.576 174.000,179.097 173.780,179.559 173.247 C 179.963 172.781,180.414 172.400,180.560 172.400 C 180.707 172.400,181.346 171.905,181.980 171.300 C 182.613 170.695,183.870 169.660,184.771 169.000 C 185.672 168.340,186.970 167.302,187.654 166.694 C 188.338 166.085,189.393 165.295,189.997 164.938 C 190.788 164.471,191.045 164.052,190.913 163.444 C 190.786 162.856,190.842 162.756,191.097 163.114 C 191.520 163.705,192.640 163.393,192.945 162.599 C 193.059 162.303,193.838 161.747,194.676 161.363 C 195.514 160.980,196.504 160.408,196.875 160.094 C 197.756 159.347,194.811 157.109,223.596 180.400 C 227.266 183.370,231.154 186.515,232.235 187.389 C 233.316 188.263,234.847 189.523,235.637 190.189 C 237.268 191.563,237.870 192.046,240.400 194.006 C 241.390 194.772,242.290 195.500,242.400 195.623 C 242.613 195.860,252.044 203.529,254.151 205.177 C 254.838 205.715,256.047 206.705,256.837 207.377 C 257.628 208.050,258.618 208.874,259.037 209.208 C 259.457 209.542,263.580 212.870,268.200 216.602 C 272.820 220.335,276.870 223.604,277.200 223.867 C 277.530 224.130,278.970 225.313,280.400 226.496 C 281.830 227.678,284.935 230.221,287.300 232.146 C 289.665 234.070,291.600 235.797,291.600 235.983 C 291.600 236.381,293.793 237.200,294.860 237.200 C 295.416 237.200,295.600 236.901,295.600 236.000 C 295.600 235.340,295.420 234.800,295.200 234.800 C 294.980 234.800,294.800 234.519,294.800 234.176 C 294.800 233.833,294.620 233.664,294.400 233.800 C 294.180 233.936,294.000 233.677,294.000 233.224 C 294.000 232.771,293.863 232.400,293.695 232.400 C 293.388 232.400,292.856 231.528,291.928 229.500 C 291.651 228.895,291.284 228.400,291.112 228.400 C 290.941 228.400,290.800 228.130,290.800 227.800 C 290.800 227.470,290.665 227.198,290.500 227.195 C 290.335 227.193,289.856 226.473,289.436 225.595 C 289.015 224.718,288.520 224.000,288.336 224.000 C 288.151 224.000,288.000 223.640,288.000 223.200 C 288.000 222.760,287.841 222.400,287.647 222.400 C 287.452 222.400,287.193 222.085,287.071 221.700 C 286.854 221.015,285.596 218.796,285.200 218.400 C 284.597 217.797,283.200 215.573,283.200 215.216 C 283.200 214.987,283.020 214.800,282.800 214.800 C 282.580 214.800,282.400 214.530,282.400 214.200 C 282.400 213.870,282.220 213.600,282.000 213.600 C 281.780 213.600,281.600 213.240,281.600 212.800 C 281.600 212.360,281.450 212.000,281.268 212.000 C 281.085 212.000,280.680 211.508,280.368 210.906 C 280.055 210.304,279.530 209.488,279.200 209.094 C 278.544 208.310,276.767 205.355,275.717 203.300 C 275.351 202.585,274.905 202.000,274.726 202.000 C 274.547 202.000,274.400 201.662,274.400 201.249 C 274.400 200.836,274.130 200.274,273.800 200.000 C 273.470 199.726,273.200 199.337,273.200 199.135 C 273.200 198.758,271.792 196.645,270.900 195.682 C 270.625 195.386,270.400 194.910,270.400 194.626 C 270.400 194.342,269.856 193.425,269.191 192.589 C 268.526 191.752,267.876 190.647,267.748 190.134 C 267.619 189.620,267.353 189.200,267.157 189.200 C 266.960 189.200,266.800 188.945,266.800 188.633 C 266.800 188.322,266.665 188.007,266.500 187.933 C 266.335 187.860,265.820 187.080,265.355 186.200 C 264.891 185.320,263.766 183.388,262.855 181.907 C 261.945 180.426,261.200 179.031,261.200 178.807 C 261.200 178.583,261.020 178.400,260.800 178.400 C 260.580 178.400,260.400 178.130,260.400 177.800 C 260.400 177.470,260.220 177.200,260.000 177.200 C 259.780 177.200,259.600 176.829,259.600 176.376 C 259.600 175.923,259.420 175.664,259.200 175.800 C 258.980 175.936,258.800 175.767,258.800 175.424 C 258.800 175.081,258.665 174.799,258.500 174.797 C 258.141 174.793,257.200 172.856,257.200 172.120 C 257.200 171.834,257.032 171.600,256.827 171.600 C 256.622 171.600,256.327 171.195,256.172 170.700 C 256.017 170.205,255.375 169.048,254.745 168.128 C 254.115 167.208,253.600 166.173,253.600 165.828 C 253.600 165.483,253.420 165.200,253.200 165.200 C 252.980 165.200,252.800 164.958,252.800 164.662 C 252.800 164.366,252.440 163.798,252.000 163.400 C 251.560 163.002,251.200 162.344,251.200 161.938 C 251.200 161.532,251.020 161.200,250.800 161.200 C 250.580 161.200,250.400 160.970,250.400 160.688 C 250.400 160.407,250.040 159.917,249.600 159.600 C 249.160 159.283,248.800 158.703,248.800 158.312 C 248.800 157.920,248.665 157.597,248.500 157.594 C 248.335 157.590,247.753 156.645,247.208 155.494 C 246.662 154.342,245.756 152.680,245.195 151.800 C 244.634 150.920,243.927 149.708,243.624 149.107 C 243.320 148.505,242.779 147.695,242.421 147.307 C 242.063 146.918,241.512 145.970,241.195 145.200 C 240.879 144.430,240.389 143.530,240.107 143.200 C 239.825 142.870,239.619 142.510,239.651 142.400 C 239.683 142.290,239.145 141.310,238.455 140.222 C 237.765 139.134,237.200 138.009,237.200 137.722 C 237.200 137.435,237.064 137.200,236.898 137.200 C 236.731 137.200,236.371 136.694,236.097 136.075 C 235.824 135.456,235.285 134.592,234.900 134.155 C 234.140 133.291,233.631 132.461,231.984 129.400 C 229.434 124.662,229.034 124.000,228.726 124.000 C 228.547 124.000,228.400 123.764,228.400 123.475 C 228.400 123.187,228.040 122.564,227.600 122.092 C 227.160 121.620,226.800 120.900,226.800 120.492 C 226.800 120.084,226.440 119.364,226.000 118.892 C 225.560 118.420,225.200 117.771,225.200 117.450 C 225.200 117.129,225.054 116.807,224.876 116.733 C 224.698 116.660,224.096 115.700,223.538 114.600 C 221.643 110.866,220.652 109.200,220.326 109.200 C 220.147 109.200,220.000 108.840,220.000 108.400 C 220.000 107.960,219.820 107.600,219.600 107.600 C 219.380 107.600,219.200 107.330,219.200 107.000 C 219.200 106.670,219.065 106.399,218.900 106.397 C 218.735 106.395,218.402 105.990,218.160 105.497 C 216.979 103.092,215.819 101.200,215.526 101.200 C 215.347 101.200,215.200 100.840,215.200 100.400 C 215.200 99.960,215.020 99.600,214.800 99.600 C 214.580 99.600,214.400 99.306,214.400 98.947 C 214.400 98.588,214.071 98.003,213.670 97.647 C 213.268 97.291,212.684 96.415,212.372 95.700 C 212.060 94.985,211.669 94.400,211.502 94.400 C 211.336 94.400,211.200 94.080,211.200 93.688 C 211.200 93.297,210.840 92.717,210.400 92.400 C 209.960 92.083,209.600 91.518,209.600 91.145 C 209.600 90.772,209.375 90.376,209.100 90.265 C 208.825 90.154,210.400 90.026,212.600 89.981 C 214.800 89.935,217.050 89.845,217.600 89.781 C 218.150 89.717,221.345 89.634,224.700 89.596 C 229.646 89.540,230.800 89.420,230.800 88.963 C 230.800 88.653,230.980 88.400,231.200 88.400 C 231.887 88.400,231.644 87.608,230.400 85.800 C 229.740 84.841,229.200 83.863,229.200 83.628 C 229.200 83.393,229.033 83.200,228.828 83.200 C 228.402 83.200,226.000 79.765,226.000 79.156 C 226.000 78.934,225.820 78.864,225.600 79.000 C 225.380 79.136,225.200 78.967,225.200 78.624 C 225.200 78.281,225.049 78.000,224.864 78.000 C 224.680 78.000,224.320 77.543,224.066 76.985 C 223.580 75.919,223.183 75.385,221.691 73.790 C 221.191 73.255,220.786 72.724,220.791 72.609 C 220.796 72.494,220.800 72.265,220.800 72.100 C 220.799 71.935,220.332 71.260,219.762 70.600 C 219.191 69.940,218.445 68.860,218.103 68.200 C 217.761 67.540,217.148 66.709,216.741 66.353 C 216.013 65.717,215.712 63.795,216.300 63.533 C 216.791 63.315,219.200 59.195,219.200 58.573 C 219.200 58.258,219.351 58.000,219.535 58.000 C 219.719 58.000,220.365 57.055,220.972 55.900 C 221.579 54.745,222.508 53.188,223.037 52.441 C 224.020 51.053,224.337 48.655,223.597 48.198 C 223.376 48.061,218.801 47.966,213.432 47.986 L 203.670 48.022 202.835 46.849 C 202.376 46.204,202.000 45.479,202.000 45.238 C 202.000 44.997,201.820 44.800,201.600 44.800 C 201.380 44.800,201.200 44.570,201.200 44.288 C 201.200 44.007,200.840 43.517,200.400 43.200 C 199.960 42.883,199.600 42.383,199.600 42.088 C 199.600 41.794,199.420 41.664,199.200 41.800 C 198.980 41.936,198.800 41.759,198.800 41.407 C 198.800 41.055,198.440 40.380,198.000 39.908 C 197.560 39.436,197.200 38.834,197.200 38.571 C 197.200 38.021,196.175 37.715,194.969 37.906 M187.862 91.383 C 187.732 91.722,187.438 92.000,187.209 92.000 C 186.946 92.000,186.972 91.713,187.281 91.218 C 187.833 90.334,188.222 90.445,187.862 91.383 M169.078 119.223 C 168.902 119.898,168.965 119.961,169.431 119.574 C 170.068 119.046,170.186 118.400,169.647 118.400 C 169.452 118.400,169.196 118.770,169.078 119.223 M98.400 236.000 C 98.083 236.196,97.956 236.489,98.118 236.652 C 98.281 236.814,98.623 236.737,98.880 236.480 C 99.484 235.876,99.147 235.538,98.400 236.000 " stroke="none" fill="#3f99a1" fill-rule="evenodd"></path><path id="path1" d="M196.386 161.929 C 194.804 162.977,190.072 166.671,175.600 178.161 C 161.499 189.356,150.227 198.291,134.000 211.137 C 128.610 215.403,123.570 219.394,122.800 220.004 C 122.030 220.615,117.795 223.969,113.388 227.457 C 98.948 238.890,98.774 239.043,99.581 239.569 C 100.262 240.013,102.258 239.692,103.400 238.955 C 103.840 238.671,104.380 238.407,104.600 238.369 C 105.520 238.207,107.507 237.459,108.895 236.753 C 109.277 236.559,109.862 236.400,110.195 236.400 C 110.528 236.400,110.800 236.220,110.800 236.000 C 110.800 235.780,111.239 235.600,111.776 235.600 C 112.313 235.600,112.864 235.420,113.000 235.200 C 113.136 234.980,113.687 234.800,114.224 234.800 C 114.761 234.800,115.200 234.620,115.200 234.400 C 115.200 234.180,115.549 234.000,115.976 234.000 C 116.403 234.000,116.864 233.820,117.000 233.600 C 117.136 233.380,117.687 233.200,118.224 233.200 C 118.761 233.200,119.200 233.020,119.200 232.800 C 119.200 232.580,119.470 232.400,119.800 232.400 C 120.130 232.400,120.400 232.259,120.400 232.087 C 120.400 231.915,120.887 231.734,121.482 231.685 C 122.078 231.636,122.744 231.416,122.962 231.198 C 123.181 230.979,123.774 230.800,124.280 230.800 C 124.786 230.800,125.200 230.620,125.200 230.400 C 125.200 230.180,125.545 230.000,125.967 230.000 C 126.388 230.000,126.793 229.822,126.867 229.603 C 126.940 229.385,127.482 229.167,128.071 229.119 C 128.660 229.070,129.055 228.888,128.948 228.715 C 128.840 228.542,129.103 228.400,129.531 228.400 C 129.959 228.400,130.811 228.139,131.426 227.820 C 132.040 227.502,132.691 227.332,132.871 227.444 C 133.052 227.556,133.200 227.457,133.200 227.224 C 133.200 226.991,133.549 226.800,133.976 226.800 C 134.403 226.800,134.864 226.620,135.000 226.400 C 135.136 226.180,135.687 226.000,136.224 226.000 C 136.761 226.000,137.200 225.820,137.200 225.600 C 137.200 225.380,137.539 225.200,137.954 225.200 C 138.369 225.200,139.224 224.931,139.854 224.602 C 140.484 224.274,141.275 224.004,141.611 224.002 C 141.947 224.001,142.622 223.720,143.111 223.377 C 143.600 223.035,144.000 222.877,144.000 223.026 C 144.000 223.176,144.225 223.122,144.500 222.907 C 144.775 222.692,145.855 222.271,146.900 221.971 C 147.945 221.671,148.800 221.285,148.800 221.113 C 148.800 220.941,149.166 220.800,149.614 220.800 C 150.062 220.800,150.872 220.509,151.414 220.154 C 151.956 219.799,152.403 219.664,152.406 219.854 C 152.409 220.044,152.561 219.966,152.742 219.680 C 152.924 219.394,153.461 219.131,153.936 219.095 C 154.411 219.059,154.800 218.888,154.800 218.715 C 154.800 218.542,155.049 218.400,155.354 218.400 C 155.659 218.400,156.411 218.139,157.026 217.820 C 157.640 217.502,158.291 217.332,158.471 217.444 C 158.652 217.556,158.800 217.489,158.800 217.296 C 158.800 217.103,159.700 216.700,160.800 216.400 C 161.900 216.100,162.800 215.708,162.800 215.528 C 162.800 215.347,163.239 215.200,163.776 215.200 C 164.313 215.200,164.864 215.020,165.000 214.800 C 165.136 214.580,165.597 214.400,166.024 214.400 C 166.451 214.400,166.800 214.220,166.800 214.000 C 166.800 213.780,167.239 213.600,167.776 213.600 C 168.313 213.600,168.864 213.420,169.000 213.200 C 169.136 212.980,169.597 212.800,170.024 212.800 C 170.451 212.800,170.800 212.620,170.800 212.400 C 170.800 212.180,171.250 212.000,171.800 212.000 C 172.350 212.000,172.800 211.820,172.800 211.600 C 172.800 211.380,173.149 211.200,173.576 211.200 C 174.003 211.200,174.464 211.020,174.600 210.800 C 174.736 210.580,175.287 210.400,175.824 210.400 C 176.361 210.400,176.800 210.220,176.800 210.000 C 176.800 209.780,177.239 209.600,177.776 209.600 C 178.313 209.600,178.864 209.420,179.000 209.200 C 179.136 208.980,179.597 208.800,180.024 208.800 C 180.451 208.800,180.800 208.620,180.800 208.400 C 180.800 208.180,181.261 208.000,181.824 208.000 C 182.396 208.000,182.740 207.826,182.603 207.605 C 182.465 207.382,182.617 207.308,182.948 207.435 C 183.272 207.560,183.957 207.429,184.469 207.145 C 184.981 206.861,185.490 206.613,185.600 206.595 C 186.656 206.416,189.124 205.455,190.890 204.535 C 191.490 204.222,192.030 203.986,192.090 204.009 C 192.389 204.125,194.962 203.130,197.138 202.057 C 198.992 201.143,200.400 200.945,200.400 201.600 C 200.400 201.820,200.760 202.000,201.200 202.000 C 201.640 202.000,202.000 202.180,202.000 202.400 C 202.000 202.620,202.360 202.800,202.800 202.800 C 203.240 202.800,203.600 202.980,203.600 203.200 C 203.600 203.420,204.140 203.600,204.800 203.600 C 205.460 203.600,206.000 203.780,206.000 204.000 C 206.000 204.220,206.242 204.400,206.539 204.400 C 206.835 204.400,207.600 204.653,208.239 204.962 C 211.182 206.385,213.342 207.260,214.039 207.313 C 214.458 207.344,214.800 207.512,214.800 207.685 C 214.800 207.858,215.250 208.000,215.800 208.000 C 216.350 208.000,216.800 208.180,216.800 208.400 C 216.800 208.620,217.261 208.800,217.824 208.800 C 218.404 208.800,218.740 208.973,218.600 209.200 C 218.464 209.420,218.713 209.600,219.153 209.600 C 219.593 209.600,220.064 209.780,220.200 210.000 C 220.336 210.220,220.887 210.400,221.424 210.400 C 221.961 210.400,222.400 210.580,222.400 210.800 C 222.400 211.020,222.760 211.200,223.200 211.200 C 223.640 211.200,224.000 211.380,224.000 211.600 C 224.000 211.820,224.360 212.000,224.800 212.000 C 225.240 212.000,225.600 212.180,225.600 212.400 C 225.600 212.620,225.955 212.800,226.388 212.800 C 226.821 212.800,227.817 213.160,228.600 213.600 C 229.383 214.040,230.389 214.400,230.836 214.400 C 231.282 214.400,231.536 214.580,231.400 214.800 C 231.260 215.027,231.596 215.200,232.176 215.200 C 232.739 215.200,233.200 215.380,233.200 215.600 C 233.200 215.820,233.549 216.000,233.976 216.000 C 234.403 216.000,234.864 216.180,235.000 216.400 C 235.136 216.620,235.687 216.800,236.224 216.800 C 236.761 216.800,237.200 216.980,237.200 217.200 C 237.200 217.420,237.560 217.600,238.000 217.600 C 238.440 217.600,238.800 217.780,238.800 218.000 C 238.800 218.220,239.261 218.400,239.824 218.400 C 240.404 218.400,240.740 218.573,240.600 218.800 C 240.464 219.020,240.706 219.200,241.139 219.200 C 241.571 219.200,242.706 219.586,243.662 220.057 C 244.618 220.528,245.760 221.044,246.200 221.203 C 247.686 221.741,249.397 222.563,250.000 223.028 C 250.330 223.282,251.995 223.917,253.700 224.437 C 255.405 224.958,256.800 225.522,256.800 225.692 C 256.800 225.861,257.072 226.000,257.405 226.000 C 257.738 226.000,258.368 226.180,258.805 226.400 C 259.242 226.620,259.958 226.980,260.395 227.200 C 260.832 227.420,261.462 227.600,261.795 227.600 C 262.128 227.600,262.400 227.780,262.400 228.000 C 262.400 228.220,262.749 228.400,263.176 228.400 C 263.603 228.400,264.064 228.580,264.200 228.800 C 264.336 229.020,264.797 229.200,265.224 229.200 C 265.651 229.200,266.000 229.380,266.000 229.600 C 266.000 229.820,266.272 230.000,266.605 230.000 C 266.938 230.000,267.568 230.180,268.005 230.400 C 268.442 230.620,269.158 230.980,269.595 231.200 C 270.032 231.420,270.662 231.600,270.995 231.600 C 271.328 231.600,271.600 231.780,271.600 232.000 C 271.600 232.220,271.960 232.400,272.400 232.400 C 272.840 232.400,273.200 232.580,273.200 232.800 C 273.200 233.020,273.639 233.200,274.176 233.200 C 274.713 233.200,275.264 233.380,275.400 233.600 C 275.536 233.820,275.997 234.000,276.424 234.000 C 276.851 234.000,277.200 234.180,277.200 234.400 C 277.200 234.620,277.549 234.800,277.976 234.800 C 278.403 234.800,278.864 234.980,279.000 235.200 C 279.136 235.420,279.597 235.600,280.024 235.600 C 280.451 235.600,280.800 235.780,280.800 236.000 C 280.800 236.220,281.036 236.400,281.325 236.400 C 281.614 236.400,282.595 236.760,283.506 237.200 C 284.416 237.640,285.440 238.000,285.781 238.000 C 286.121 238.000,286.400 238.180,286.400 238.400 C 286.400 238.620,286.730 238.800,287.133 238.800 C 287.537 238.800,288.002 238.935,288.167 239.100 C 288.332 239.265,288.587 239.406,288.733 239.414 C 288.880 239.422,289.405 239.653,289.900 239.928 C 290.395 240.203,290.800 240.328,290.800 240.205 C 290.800 240.082,291.242 240.271,291.782 240.625 C 292.323 240.979,292.953 241.153,293.182 241.011 C 293.412 240.869,293.600 240.955,293.600 241.202 C 293.600 241.467,294.131 241.599,294.900 241.525 C 296.140 241.406,297.285 238.077,296.123 237.970 C 295.551 237.918,293.825 237.611,292.933 237.403 C 292.457 237.292,291.355 236.526,290.486 235.701 C 289.616 234.875,286.136 231.957,282.752 229.216 C 279.369 226.475,276.510 224.125,276.400 223.993 C 276.290 223.861,275.823 223.494,275.363 223.177 C 274.902 222.860,273.732 221.935,272.763 221.122 C 271.793 220.309,269.817 218.689,268.370 217.522 C 266.924 216.355,263.414 213.513,260.570 211.207 C 257.727 208.901,255.061 206.741,254.648 206.407 C 254.234 206.073,253.132 205.170,252.200 204.400 C 251.268 203.630,250.166 202.727,249.752 202.394 C 248.516 201.398,234.261 189.863,233.455 189.206 C 233.046 188.873,232.506 188.413,232.255 188.184 C 232.005 187.955,228.020 184.724,223.400 181.004 C 218.780 177.284,214.910 174.136,214.800 174.010 C 214.690 173.883,213.790 173.154,212.800 172.390 C 211.810 171.625,210.550 170.612,210.000 170.138 C 200.699 162.121,198.291 160.669,196.386 161.929 M196.493 229.200 C 196.218 229.640,195.714 230.000,195.373 230.000 C 195.032 230.000,194.864 230.180,195.000 230.400 C 195.136 230.620,195.090 230.800,194.897 230.800 C 194.704 230.800,193.579 232.195,192.397 233.900 C 191.214 235.605,189.921 237.291,189.523 237.647 C 189.126 238.003,188.800 238.471,188.800 238.688 C 188.800 238.904,188.305 239.608,187.700 240.251 C 187.095 240.894,185.790 242.496,184.801 243.810 C 183.812 245.125,182.903 246.290,182.782 246.400 C 182.661 246.510,182.124 247.230,181.589 248.000 C 181.055 248.770,180.208 249.813,179.709 250.318 C 179.209 250.823,178.800 251.395,178.800 251.590 C 178.800 251.784,178.563 252.181,178.272 252.471 C 177.982 252.762,177.055 253.981,176.213 255.181 C 174.478 257.651,174.366 257.798,173.111 259.268 C 171.173 261.539,170.800 262.016,170.800 262.223 C 170.800 262.340,170.347 262.890,169.792 263.444 C 169.238 263.998,168.906 264.648,169.054 264.888 C 169.215 265.149,169.138 265.209,168.862 265.038 C 168.608 264.881,168.400 264.898,168.400 265.076 C 168.399 265.254,167.953 265.918,167.408 266.552 C 166.863 267.186,166.531 267.889,166.670 268.114 C 166.816 268.349,166.727 268.402,166.462 268.238 C 166.208 268.081,166.000 268.109,166.000 268.301 C 166.000 268.492,165.680 268.998,165.289 269.425 C 164.898 269.851,164.138 270.830,163.600 271.600 C 163.063 272.370,162.222 273.438,161.733 273.973 C 161.243 274.508,160.928 275.084,161.033 275.253 C 161.137 275.422,160.842 275.763,160.377 276.012 C 159.912 276.261,159.626 276.559,159.741 276.675 C 159.857 276.790,159.557 277.293,159.076 277.792 C 157.461 279.466,156.800 280.405,156.800 281.028 C 156.800 281.369,156.620 281.536,156.400 281.400 C 156.180 281.264,156.000 281.309,156.000 281.501 C 156.000 281.692,155.675 282.198,155.278 282.625 C 154.881 283.051,153.920 284.344,153.143 285.498 C 152.366 286.652,151.611 287.477,151.465 287.332 C 151.319 287.186,151.200 287.340,151.200 287.674 C 151.200 288.008,150.661 288.846,150.002 289.535 C 149.343 290.225,148.758 290.999,148.702 291.256 C 148.646 291.512,148.146 292.190,147.591 292.761 C 146.359 294.030,143.566 297.732,142.508 299.499 C 142.080 300.213,141.611 300.678,141.465 300.532 C 141.319 300.386,141.200 300.529,141.200 300.849 C 141.200 301.170,140.480 302.228,139.600 303.200 C 138.720 304.172,138.000 305.118,138.000 305.302 C 138.000 305.486,137.595 306.056,137.100 306.568 C 135.861 307.850,134.800 309.167,134.800 309.421 C 134.800 309.686,134.440 310.137,132.418 312.400 C 131.534 313.390,130.808 314.425,130.805 314.700 C 130.802 314.975,130.665 315.201,130.500 315.203 C 130.335 315.204,129.750 315.879,129.201 316.703 C 128.651 317.526,127.975 318.438,127.699 318.730 C 126.610 319.880,124.800 322.778,124.800 323.372 C 124.800 323.717,124.603 323.955,124.363 323.900 C 124.122 323.845,123.717 324.155,123.463 324.588 C 122.322 326.530,120.000 328.212,120.000 327.096 C 120.000 326.819,119.640 326.368,119.200 326.093 C 118.760 325.818,118.400 325.359,118.400 325.072 C 118.400 324.785,118.080 324.202,117.689 323.775 C 117.298 323.349,116.538 322.370,116.000 321.600 C 115.462 320.830,114.702 319.851,114.311 319.425 C 113.920 318.998,113.600 318.522,113.600 318.367 C 113.600 318.212,113.060 317.507,112.400 316.800 C 111.740 316.093,111.200 315.308,111.200 315.054 C 111.200 314.800,110.840 314.368,110.400 314.093 C 109.960 313.818,109.600 313.314,109.600 312.973 C 109.600 312.632,109.420 312.464,109.200 312.600 C 108.980 312.736,108.800 312.559,108.800 312.206 C 108.800 311.854,108.350 311.080,107.800 310.487 C 107.250 309.893,106.800 309.225,106.800 309.000 C 106.800 308.776,106.433 308.363,105.984 308.083 C 105.536 307.803,105.258 307.429,105.368 307.252 C 105.477 307.076,104.989 306.303,104.283 305.535 C 103.577 304.767,102.941 303.884,102.868 303.573 C 102.795 303.262,102.607 302.916,102.449 302.804 C 102.291 302.692,101.726 301.970,101.194 301.200 C 100.662 300.430,100.002 299.568,99.727 299.285 C 99.453 299.002,98.913 298.237,98.528 297.585 C 98.143 296.933,97.686 296.400,97.514 296.400 C 97.341 296.400,97.200 296.222,97.200 296.005 C 97.200 295.633,96.440 294.585,95.300 293.384 C 95.025 293.094,94.800 292.704,94.800 292.517 C 94.800 292.330,94.440 291.917,94.000 291.600 C 93.560 291.283,93.200 290.827,93.200 290.587 C 93.200 290.347,92.859 289.785,92.443 289.338 C 92.026 288.891,91.387 287.947,91.022 287.242 C 90.657 286.536,90.099 285.859,89.781 285.738 C 89.464 285.616,89.304 285.355,89.426 285.158 C 89.548 284.961,89.469 284.800,89.251 284.800 C 89.032 284.800,88.738 284.434,88.596 283.987 C 88.454 283.540,87.947 282.775,87.469 282.287 C 86.991 281.799,86.345 280.905,86.032 280.300 C 85.720 279.695,85.327 279.200,85.158 279.200 C 84.989 279.200,84.447 278.480,83.952 277.600 C 83.457 276.720,82.906 276.000,82.726 276.000 C 82.547 276.000,82.400 275.770,82.400 275.488 C 82.400 275.207,82.040 274.717,81.600 274.400 C 81.160 274.083,80.800 273.620,80.800 273.371 C 80.800 273.122,80.260 272.354,79.600 271.663 C 78.940 270.972,78.400 270.271,78.399 270.104 C 78.399 269.937,77.859 269.170,77.200 268.400 C 76.541 267.630,76.001 266.815,76.001 266.588 C 76.000 266.362,75.640 265.917,75.200 265.600 C 74.760 265.283,74.400 264.812,74.400 264.554 C 74.400 264.005,73.493 263.600,72.267 263.600 C 71.249 263.601,69.200 265.243,69.200 266.058 C 69.200 266.369,68.840 266.883,68.400 267.200 C 67.960 267.517,67.600 267.973,67.600 268.213 C 67.600 268.453,67.236 269.040,66.792 269.517 C 66.347 269.994,65.980 270.523,65.977 270.692 C 65.973 270.862,65.617 271.406,65.185 271.903 C 64.753 272.400,64.400 273.009,64.400 273.256 C 64.400 273.504,64.085 273.997,63.700 274.353 C 62.805 275.180,61.563 277.409,61.811 277.744 C 61.915 277.885,61.875 277.905,61.723 277.790 C 61.422 277.561,58.400 282.104,58.400 282.785 C 58.400 283.013,58.220 283.200,58.000 283.200 C 57.780 283.200,57.600 283.393,57.600 283.628 C 57.600 284.014,55.381 287.511,54.826 288.000 C 54.701 288.110,54.344 288.695,54.032 289.300 C 53.720 289.905,53.315 290.400,53.132 290.400 C 52.950 290.400,52.800 290.636,52.800 290.925 C 52.800 291.213,52.436 291.840,51.992 292.317 C 51.547 292.794,51.180 293.323,51.177 293.492 C 51.173 293.662,50.857 294.160,50.475 294.600 C 50.093 295.040,49.537 295.985,49.241 296.700 C 48.945 297.415,48.575 298.000,48.419 298.000 C 48.263 298.000,47.880 298.495,47.568 299.100 C 47.255 299.705,46.685 300.549,46.300 300.975 C 45.915 301.402,45.600 301.987,45.600 302.275 C 45.600 302.564,45.442 302.800,45.249 302.800 C 45.055 302.800,44.673 303.340,44.400 304.000 C 44.127 304.660,43.772 305.200,43.612 305.200 C 43.452 305.200,42.985 305.965,42.574 306.900 C 41.844 308.559,39.699 311.667,39.100 311.933 C 38.935 312.007,38.800 312.288,38.800 312.558 C 38.800 312.828,38.485 313.398,38.100 313.825 C 37.715 314.251,37.145 315.095,36.832 315.700 C 36.520 316.305,36.115 316.800,35.932 316.800 C 35.750 316.800,35.600 317.120,35.600 317.512 C 35.600 317.903,35.240 318.483,34.800 318.800 C 34.360 319.117,34.000 319.669,34.000 320.026 C 34.000 320.384,33.640 321.002,33.200 321.400 C 32.760 321.798,32.400 322.344,32.400 322.613 C 32.400 322.882,32.126 323.330,31.790 323.608 C 31.455 323.886,31.272 324.205,31.383 324.316 C 31.494 324.428,31.265 324.807,30.874 325.159 C 29.855 326.076,28.285 328.398,28.673 328.413 C 28.853 328.420,28.651 328.690,28.224 329.013 C 27.796 329.336,27.616 329.603,27.824 329.606 C 28.038 329.610,28.028 329.739,27.800 329.906 C 26.637 330.760,24.294 334.945,24.716 335.413 C 24.872 335.587,24.775 335.599,24.500 335.441 C 24.191 335.263,24.000 335.391,24.000 335.776 C 24.000 336.119,23.841 336.400,23.646 336.400 C 23.451 336.400,23.004 337.005,22.653 337.745 C 22.302 338.485,21.741 339.317,21.407 339.594 C 21.073 339.871,20.800 340.346,20.800 340.649 C 20.800 340.952,20.620 341.200,20.400 341.200 C 20.180 341.200,20.000 341.470,20.000 341.800 C 20.000 342.130,19.820 342.400,19.600 342.400 C 19.380 342.400,19.200 342.670,19.200 343.000 C 19.200 343.330,19.020 343.600,18.800 343.600 C 18.580 343.600,18.400 343.870,18.400 344.200 C 18.400 344.530,18.250 344.800,18.068 344.800 C 17.885 344.800,17.480 345.295,17.168 345.900 C 16.855 346.505,16.285 347.349,15.900 347.775 C 15.515 348.202,15.200 348.704,15.200 348.892 C 15.200 349.080,14.840 349.620,14.400 350.092 C 13.960 350.564,13.600 351.187,13.600 351.475 C 13.600 351.764,13.420 352.000,13.200 352.000 C 12.980 352.000,12.800 352.236,12.800 352.525 C 12.800 352.813,12.485 353.403,12.100 353.837 C 11.715 354.270,11.054 355.249,10.630 356.012 C 10.207 356.775,9.689 357.515,9.480 357.655 C 9.271 357.794,9.100 358.388,9.100 358.974 C 9.100 361.173,9.103 361.173,27.850 361.187 L 45.099 361.200 46.602 359.824 C 47.556 358.950,48.018 358.224,47.869 357.836 C 47.740 357.499,47.858 356.993,48.132 356.712 C 48.406 356.430,48.935 355.550,49.308 354.755 C 49.680 353.960,50.259 353.083,50.593 352.806 C 50.927 352.529,51.200 352.054,51.200 351.751 C 51.200 351.448,51.358 351.200,51.551 351.200 C 51.745 351.200,52.127 350.660,52.400 350.000 C 52.673 349.340,53.066 348.800,53.272 348.800 C 53.478 348.800,53.550 348.643,53.432 348.452 C 53.314 348.261,53.663 347.586,54.208 346.952 C 54.753 346.318,55.199 345.575,55.200 345.300 C 55.200 345.025,55.410 344.800,55.667 344.800 C 55.923 344.800,56.013 344.680,55.866 344.532 C 55.719 344.385,55.897 343.935,56.261 343.532 C 56.626 343.130,56.799 342.800,56.646 342.800 C 56.494 342.800,56.736 342.406,57.184 341.925 C 57.633 341.443,58.000 340.813,58.000 340.525 C 58.000 340.236,58.180 340.000,58.400 340.000 C 58.620 340.000,58.800 339.730,58.800 339.400 C 58.800 339.070,58.980 338.800,59.200 338.800 C 59.420 338.800,59.600 338.429,59.600 337.976 C 59.600 337.523,59.780 337.264,60.000 337.400 C 60.220 337.536,60.400 337.382,60.400 337.057 C 60.400 336.732,60.535 336.407,60.700 336.333 C 61.076 336.166,62.375 334.036,62.671 333.100 C 62.793 332.715,63.052 332.400,63.247 332.400 C 63.441 332.400,63.600 332.106,63.600 331.747 C 63.600 331.388,63.915 330.802,64.300 330.446 C 65.096 329.709,66.341 327.742,66.671 326.700 C 66.793 326.315,67.052 326.000,67.247 326.000 C 67.441 326.000,67.600 325.764,67.600 325.475 C 67.600 325.187,67.960 324.564,68.400 324.092 C 68.840 323.620,69.200 323.123,69.200 322.989 C 69.200 322.854,69.749 321.947,70.419 320.972 C 71.633 319.208,72.400 318.725,72.400 319.725 C 72.400 320.013,72.760 320.636,73.200 321.108 C 73.640 321.580,74.000 322.165,74.000 322.407 C 74.000 322.649,74.180 322.736,74.400 322.600 C 74.620 322.464,74.800 322.547,74.800 322.785 C 74.800 323.246,76.666 326.249,77.499 327.129 C 77.775 327.419,78.000 327.816,78.000 328.010 C 78.000 328.205,78.450 328.814,79.000 329.364 C 79.550 329.914,80.000 330.507,80.001 330.682 C 80.001 330.857,80.541 331.630,81.200 332.400 C 81.859 333.170,82.399 333.959,82.399 334.153 C 82.400 334.347,82.716 334.797,83.103 335.153 C 83.489 335.509,84.060 336.295,84.370 336.900 C 84.681 337.505,85.085 338.000,85.268 338.000 C 85.450 338.000,85.600 338.178,85.600 338.395 C 85.600 338.767,86.360 339.815,87.500 341.016 C 87.775 341.306,88.000 341.736,88.000 341.971 C 88.000 342.207,88.141 342.400,88.314 342.400 C 88.486 342.400,88.921 342.895,89.279 343.500 C 89.637 344.105,90.396 345.140,90.965 345.800 C 91.534 346.460,91.999 347.133,92.000 347.295 C 92.000 347.747,96.477 354.135,97.180 354.687 C 97.521 354.955,97.658 355.180,97.484 355.187 C 97.311 355.194,97.536 355.594,97.984 356.075 C 98.433 356.557,98.800 357.232,98.800 357.575 C 98.801 357.919,99.227 358.695,99.747 359.300 L 100.693 360.400 129.649 360.400 L 158.605 360.400 159.141 359.100 C 160.130 356.702,160.782 355.397,160.791 355.793 C 160.796 356.009,161.286 355.469,161.880 354.593 C 162.474 353.717,163.284 352.651,163.680 352.225 C 164.076 351.798,164.400 351.213,164.400 350.925 C 164.400 350.636,164.559 350.400,164.754 350.400 C 164.949 350.400,165.413 349.759,165.785 348.976 C 166.156 348.193,166.717 347.453,167.030 347.333 C 167.344 347.213,167.600 346.898,167.600 346.633 C 167.600 346.368,167.956 345.769,168.391 345.301 C 168.827 344.834,169.232 344.215,169.291 343.926 C 169.351 343.637,169.675 343.130,170.010 342.800 C 170.877 341.948,172.195 339.856,172.089 339.500 C 172.040 339.335,172.180 339.200,172.400 339.200 C 172.620 339.200,172.800 338.949,172.800 338.643 C 172.800 338.336,173.081 337.978,173.425 337.846 C 173.769 337.714,173.954 337.448,173.835 337.256 C 173.716 337.064,173.975 336.585,174.409 336.191 C 174.844 335.798,175.200 335.223,175.200 334.914 C 175.200 334.606,175.380 334.464,175.600 334.600 C 175.820 334.736,176.000 334.612,176.001 334.324 C 176.001 334.036,176.541 333.170,177.200 332.400 C 177.859 331.630,178.399 330.815,178.399 330.588 C 178.400 330.362,178.760 329.917,179.200 329.600 C 179.640 329.283,180.000 328.769,180.000 328.459 C 180.000 328.148,180.372 327.571,180.826 327.177 C 181.281 326.783,181.622 326.341,181.585 326.195 C 181.548 326.048,181.896 325.493,182.359 324.961 C 182.822 324.429,183.200 323.830,183.200 323.630 C 183.200 323.430,183.347 323.207,183.528 323.133 C 183.708 323.060,184.641 321.830,185.600 320.400 C 186.559 318.970,187.493 317.740,187.675 317.666 C 187.856 317.592,187.903 317.367,187.779 317.166 C 187.655 316.965,187.743 316.800,187.976 316.800 C 188.209 316.800,188.400 316.539,188.400 316.220 C 188.400 315.901,188.637 315.496,188.927 315.320 C 189.217 315.144,190.047 313.953,190.772 312.674 C 191.496 311.395,192.519 309.918,193.044 309.392 C 193.570 308.866,194.000 308.198,194.000 307.906 C 194.000 307.615,194.360 307.117,194.800 306.800 C 195.240 306.483,195.600 306.076,195.600 305.895 C 195.600 305.714,195.960 305.180,196.400 304.708 C 196.840 304.236,197.200 303.613,197.200 303.325 C 197.200 303.036,197.380 302.800,197.600 302.800 C 197.820 302.800,198.000 302.496,198.000 302.125 C 198.000 301.552,198.122 301.580,198.800 302.308 C 199.240 302.780,199.601 303.309,199.602 303.483 C 199.605 303.961,201.981 306.400,202.444 306.400 C 202.666 306.400,202.736 306.580,202.600 306.800 C 202.464 307.020,202.573 307.200,202.843 307.200 C 203.113 307.200,203.227 307.306,203.097 307.436 C 202.968 307.566,203.388 308.222,204.031 308.895 C 204.674 309.568,205.200 310.290,205.200 310.499 C 205.200 310.708,205.740 311.383,206.400 312.000 C 207.060 312.617,207.600 313.223,207.600 313.349 C 207.600 313.780,210.155 317.200,210.477 317.200 C 210.655 317.200,210.800 317.476,210.800 317.813 C 210.800 318.149,211.070 318.529,211.400 318.655 C 211.730 318.782,212.000 319.057,212.000 319.266 C 212.000 319.714,214.199 322.608,215.521 323.900 C 216.027 324.395,216.334 324.800,216.202 324.800 C 216.071 324.800,216.422 325.258,216.982 325.818 C 217.542 326.378,218.000 326.986,218.000 327.168 C 218.000 327.350,218.630 328.187,219.400 329.028 C 220.170 329.869,220.800 330.712,220.800 330.902 C 220.800 331.092,221.008 331.119,221.262 330.962 C 221.527 330.798,221.616 330.851,221.470 331.086 C 221.331 331.311,221.663 332.014,222.208 332.648 C 222.753 333.282,223.199 333.946,223.200 334.124 C 223.200 334.302,223.408 334.319,223.662 334.162 C 223.944 333.988,224.015 334.052,223.845 334.327 C 223.692 334.574,224.025 335.174,224.584 335.661 C 225.143 336.147,225.600 336.737,225.600 336.972 C 225.600 337.207,226.230 338.108,227.000 338.973 C 227.770 339.838,228.400 340.664,228.400 340.809 C 228.400 340.954,229.075 341.779,229.900 342.642 C 230.725 343.506,231.459 344.480,231.530 344.806 C 231.602 345.133,231.829 345.461,232.035 345.535 C 232.241 345.609,232.985 346.509,233.688 347.535 C 234.391 348.561,235.289 349.749,235.683 350.175 C 236.078 350.602,236.400 351.108,236.400 351.299 C 236.400 351.491,236.580 351.536,236.800 351.400 C 237.020 351.264,237.200 351.523,237.200 351.976 C 237.200 352.429,237.384 352.800,237.609 352.800 C 237.833 352.800,238.220 353.244,238.467 353.787 C 238.715 354.331,239.071 354.680,239.258 354.564 C 239.446 354.448,239.600 354.618,239.600 354.943 C 239.600 355.268,239.735 355.594,239.900 355.668 C 240.065 355.742,240.650 356.326,241.200 356.966 C 241.750 357.606,241.962 357.991,241.670 357.823 C 241.231 357.568,241.231 357.674,241.670 358.443 C 242.442 359.792,243.070 360.400,243.691 360.400 C 243.993 360.400,244.436 360.596,244.675 360.835 C 244.988 361.148,245.185 361.148,245.378 360.835 C 245.568 360.529,253.356 360.400,271.647 360.400 C 292.341 360.400,297.586 360.502,297.347 360.900 C 297.114 361.287,297.176 361.295,297.623 360.935 C 297.940 360.680,298.722 360.410,299.360 360.335 C 300.923 360.153,302.363 358.273,301.723 357.249 C 301.351 356.652,301.477 356.282,302.434 355.162 C 303.074 354.413,303.599 353.590,303.599 353.333 C 303.600 353.077,303.758 352.807,303.950 352.733 C 304.143 352.660,305.166 351.250,306.224 349.600 C 307.282 347.950,308.294 346.540,308.474 346.467 C 308.653 346.393,308.800 346.028,308.800 345.655 C 308.800 345.282,309.160 344.717,309.600 344.400 C 310.040 344.083,310.400 343.543,310.400 343.200 C 310.400 342.857,310.760 342.317,311.200 342.000 C 311.640 341.683,312.000 341.193,312.000 340.912 C 312.000 340.630,312.168 340.400,312.373 340.400 C 312.578 340.400,312.862 340.034,313.004 339.587 C 313.146 339.140,313.702 338.334,314.240 337.796 C 314.778 337.258,315.221 336.679,315.224 336.509 C 315.227 336.339,315.583 335.794,316.015 335.297 C 316.447 334.800,316.800 334.260,316.801 334.097 C 316.801 333.934,317.341 333.170,318.000 332.400 C 318.659 331.630,319.199 330.857,319.199 330.683 C 319.200 330.509,319.560 329.980,320.000 329.508 C 320.440 329.036,320.800 328.413,320.800 328.125 C 320.800 327.836,320.941 327.600,321.114 327.600 C 321.419 327.600,322.612 325.804,322.841 325.000 C 322.904 324.780,323.280 324.251,323.678 323.825 C 324.075 323.398,324.400 322.897,324.400 322.711 C 324.400 322.524,324.760 322.565,325.200 322.800 C 325.640 323.035,326.000 323.482,326.000 323.791 C 326.000 324.101,326.315 324.590,326.700 324.877 C 327.085 325.165,327.449 325.637,327.509 325.926 C 327.568 326.215,327.973 326.834,328.409 327.301 C 328.844 327.769,329.200 328.387,329.200 328.675 C 329.200 328.964,329.375 329.200,329.590 329.200 C 329.804 329.200,330.250 329.723,330.580 330.362 C 330.911 331.001,331.411 331.766,331.691 332.062 C 331.971 332.358,332.452 333.089,332.760 333.686 C 333.068 334.284,333.435 334.702,333.575 334.615 C 333.716 334.529,334.049 334.951,334.315 335.554 C 334.582 336.157,335.160 337.036,335.600 337.508 C 336.040 337.980,336.400 338.539,336.400 338.750 C 336.400 338.961,336.535 339.193,336.700 339.267 C 337.167 339.474,340.400 343.828,340.400 344.249 C 340.400 344.455,340.760 344.883,341.200 345.200 C 341.640 345.517,342.000 346.017,342.000 346.312 C 342.000 346.606,342.184 346.733,342.410 346.594 C 342.635 346.455,342.780 346.489,342.731 346.670 C 342.587 347.201,343.224 348.800,343.578 348.800 C 343.757 348.800,344.121 349.327,344.388 349.971 C 344.655 350.615,345.127 351.240,345.437 351.359 C 345.746 351.478,346.000 351.768,346.000 352.005 C 346.000 352.241,346.720 353.409,347.600 354.600 C 348.480 355.791,349.200 357.016,349.200 357.322 C 349.200 357.998,350.291 359.222,351.499 359.900 C 352.785 360.622,391.362 360.622,392.917 359.900 C 394.517 359.157,394.456 356.747,392.800 355.200 C 392.140 354.583,391.600 353.815,391.600 353.492 C 391.600 352.873,388.460 347.977,387.163 346.574 C 386.744 346.120,386.400 345.612,386.400 345.446 C 386.400 345.030,383.923 341.431,383.523 341.267 C 383.345 341.193,383.200 340.828,383.200 340.455 C 383.200 340.082,382.840 339.517,382.400 339.200 C 381.960 338.883,381.600 338.343,381.600 338.000 C 381.600 337.657,381.240 337.117,380.800 336.800 C 380.360 336.483,380.000 336.021,380.000 335.774 C 380.000 335.526,379.640 334.998,379.200 334.600 C 378.760 334.202,378.400 333.668,378.400 333.413 C 378.400 333.159,378.085 332.602,377.700 332.175 C 377.315 331.749,376.745 330.905,376.432 330.300 C 376.120 329.695,375.715 329.200,375.532 329.200 C 375.350 329.200,375.200 328.930,375.200 328.600 C 375.200 328.270,375.064 328.000,374.898 328.000 C 374.731 328.000,374.356 327.459,374.063 326.798 C 373.765 326.125,373.343 325.712,373.104 325.860 C 372.841 326.022,372.794 325.933,372.982 325.630 C 373.167 325.329,372.954 324.903,372.437 324.541 C 371.969 324.213,371.683 323.789,371.801 323.598 C 371.919 323.408,371.607 322.827,371.108 322.308 C 370.608 321.788,370.142 321.102,370.070 320.782 C 369.999 320.462,369.774 320.140,369.570 320.067 C 369.367 319.993,369.200 319.723,369.199 319.467 C 369.199 319.210,368.659 318.370,368.000 317.600 C 367.341 316.830,366.801 316.057,366.801 315.883 C 366.800 315.709,366.440 315.180,366.000 314.708 C 365.560 314.236,365.200 313.602,365.200 313.301 C 365.200 312.999,365.020 312.864,364.800 313.000 C 364.580 313.136,364.400 313.029,364.400 312.761 C 364.400 312.494,363.941 311.674,363.380 310.938 C 362.818 310.202,362.486 309.600,362.641 309.600 C 362.796 309.600,362.535 309.264,362.061 308.853 C 361.588 308.442,361.200 307.878,361.200 307.600 C 361.200 307.322,360.884 306.803,360.497 306.447 C 360.111 306.091,359.540 305.305,359.230 304.700 C 358.919 304.095,358.515 303.600,358.332 303.600 C 358.150 303.600,358.000 303.345,358.000 303.033 C 358.000 302.722,357.865 302.407,357.700 302.333 C 357.535 302.260,357.061 301.533,356.647 300.719 C 356.233 299.904,355.558 298.876,355.147 298.435 C 354.736 297.994,354.400 297.480,354.400 297.292 C 354.400 297.104,354.085 296.602,353.700 296.175 C 353.315 295.749,352.738 294.893,352.419 294.274 C 352.099 293.655,351.379 292.652,350.819 292.046 C 350.258 291.440,349.744 290.698,349.675 290.398 C 349.606 290.097,349.246 289.569,348.875 289.225 C 348.504 288.881,348.142 288.330,348.070 288.000 C 347.999 287.670,347.774 287.340,347.570 287.267 C 347.367 287.193,347.200 286.868,347.200 286.543 C 347.200 286.218,347.020 286.064,346.800 286.200 C 346.580 286.336,346.400 286.077,346.400 285.624 C 346.400 285.171,346.250 284.800,346.068 284.800 C 345.885 284.800,345.480 284.305,345.168 283.700 C 344.855 283.095,344.285 282.251,343.900 281.825 C 343.515 281.398,343.200 280.813,343.200 280.525 C 343.200 280.236,343.050 280.000,342.868 280.000 C 342.685 280.000,342.280 279.505,341.968 278.900 C 341.656 278.295,341.300 277.710,341.176 277.600 C 340.620 277.107,335.600 269.169,335.600 268.784 C 335.600 268.547,335.441 268.451,335.246 268.571 C 335.052 268.691,334.657 268.207,334.368 267.495 C 334.080 266.783,333.530 265.919,333.147 265.575 C 332.764 265.231,332.394 264.699,332.325 264.393 C 332.256 264.087,331.809 263.429,331.331 262.931 C 330.853 262.433,330.346 261.660,330.204 261.213 C 330.062 260.766,329.778 260.400,329.573 260.400 C 329.368 260.400,329.200 260.207,329.200 259.971 C 329.200 258.351,326.031 257.810,325.267 259.300 C 324.490 260.816,323.862 261.647,322.300 263.223 C 321.475 264.056,320.800 264.949,320.800 265.208 C 320.800 265.467,320.298 266.156,319.685 266.740 C 319.071 267.323,318.135 268.430,317.604 269.200 C 317.072 269.970,316.287 270.915,315.858 271.300 C 315.429 271.685,315.195 272.000,315.339 272.000 C 315.482 272.000,315.285 272.334,314.900 272.741 C 314.515 273.149,313.570 274.254,312.800 275.197 C 312.030 276.140,310.939 277.471,310.375 278.156 C 309.810 278.840,308.919 280.030,308.393 280.800 C 307.868 281.570,307.118 282.488,306.726 282.841 C 306.335 283.193,306.127 283.594,306.265 283.731 C 306.402 283.869,306.219 284.095,305.857 284.233 C 305.496 284.372,305.200 284.664,305.200 284.882 C 305.200 285.101,304.660 285.783,304.000 286.400 C 303.340 287.017,302.800 287.684,302.800 287.882 C 302.800 288.081,302.215 288.890,301.500 289.679 C 299.174 292.248,298.015 293.790,298.007 294.324 C 298.003 294.612,297.820 294.736,297.600 294.600 C 297.380 294.464,297.200 294.509,297.200 294.701 C 297.200 294.892,296.880 295.398,296.490 295.825 C 296.099 296.251,294.890 297.770,293.803 299.200 C 292.716 300.630,291.686 301.860,291.513 301.933 C 291.341 302.007,291.200 302.295,291.200 302.574 C 291.200 302.853,290.703 303.603,290.096 304.241 C 289.488 304.878,288.550 306.030,288.011 306.800 C 287.472 307.570,286.529 308.677,285.915 309.260 C 285.302 309.844,284.800 310.453,284.800 310.614 C 284.800 310.774,284.476 311.197,284.081 311.553 C 283.686 311.909,282.929 312.830,282.400 313.600 C 281.871 314.370,281.087 315.315,280.658 315.700 C 280.229 316.085,279.995 316.400,280.139 316.400 C 280.282 316.400,280.125 316.715,279.790 317.100 C 277.612 319.599,276.979 320.392,275.880 322.000 C 275.204 322.990,274.324 324.091,273.925 324.447 C 273.526 324.803,273.200 325.216,273.200 325.365 C 273.200 325.514,272.761 326.075,272.225 326.612 L 271.250 327.587 270.968 326.693 C 270.812 326.202,270.388 325.530,270.024 325.200 C 269.660 324.870,268.925 323.970,268.392 323.200 C 267.858 322.430,267.102 321.451,266.711 321.025 C 266.320 320.598,266.000 320.122,266.000 319.967 C 266.000 319.812,265.460 319.107,264.800 318.400 C 264.140 317.693,263.600 316.834,263.600 316.491 C 263.600 316.148,263.485 315.982,263.344 316.123 C 263.203 316.263,262.798 315.856,262.444 315.218 C 261.834 314.118,260.280 311.988,259.393 311.037 C 259.169 310.796,258.286 309.610,257.431 308.400 C 256.576 307.190,255.724 306.140,255.538 306.067 C 255.352 305.993,255.200 305.723,255.200 305.467 C 255.199 305.210,254.749 304.477,254.200 303.838 C 253.650 303.199,253.200 302.532,253.200 302.356 C 253.200 302.180,252.750 301.586,252.200 301.036 C 251.650 300.486,251.200 299.893,251.200 299.718 C 251.199 299.543,250.734 298.860,250.165 298.200 C 249.596 297.540,248.837 296.505,248.479 295.899 C 248.120 295.294,247.503 294.696,247.108 294.571 C 246.712 294.445,246.484 294.187,246.602 293.997 C 246.719 293.807,246.362 293.198,245.808 292.644 C 245.253 292.090,244.800 291.493,244.799 291.318 C 244.799 291.143,244.259 290.370,243.600 289.600 C 242.941 288.830,242.401 287.990,242.401 287.733 C 242.400 287.477,242.246 287.207,242.057 287.133 C 241.869 287.060,240.665 285.470,239.382 283.600 C 238.100 281.730,236.940 280.110,236.806 280.000 C 236.671 279.890,236.126 279.170,235.594 278.400 C 235.062 277.630,234.440 276.800,234.213 276.556 C 233.314 275.589,231.400 273.047,231.408 272.830 C 231.412 272.704,230.917 272.078,230.308 271.441 C 229.699 270.803,229.200 270.078,229.200 269.829 C 229.200 269.580,228.840 269.117,228.400 268.800 C 227.960 268.483,227.600 268.038,227.600 267.812 C 227.599 267.585,227.152 266.881,226.607 266.246 C 226.061 265.611,225.052 264.216,224.365 263.146 C 223.679 262.076,222.955 261.200,222.758 261.200 C 222.561 261.200,222.400 260.958,222.400 260.662 C 222.400 260.366,222.040 259.798,221.600 259.400 C 221.160 259.002,220.800 258.525,220.800 258.341 C 220.800 258.157,220.305 257.510,219.700 256.903 C 219.095 256.297,218.541 255.532,218.468 255.204 C 218.395 254.876,218.207 254.516,218.049 254.404 C 217.891 254.292,217.325 253.570,216.792 252.800 C 216.258 252.030,215.502 251.051,215.111 250.625 C 214.720 250.198,214.400 249.653,214.400 249.413 C 214.400 249.173,214.040 248.717,213.600 248.400 C 213.160 248.083,212.800 247.583,212.800 247.288 C 212.800 246.994,212.620 246.864,212.400 247.000 C 212.180 247.136,212.000 247.001,212.000 246.699 C 212.000 246.398,211.640 245.764,211.200 245.292 C 210.760 244.820,210.400 244.334,210.400 244.213 C 210.400 244.092,209.860 243.428,209.200 242.737 C 208.540 242.046,208.000 241.304,208.000 241.088 C 208.000 240.871,207.612 240.358,207.139 239.947 C 206.665 239.536,206.402 239.200,206.555 239.200 C 206.816 239.200,206.485 238.732,205.271 237.386 C 204.981 237.064,204.855 236.800,204.992 236.800 C 205.129 236.800,204.770 236.363,204.194 235.829 C 203.617 235.295,203.160 234.710,203.176 234.529 C 203.193 234.348,202.935 233.883,202.603 233.495 C 202.271 233.108,202.000 232.622,202.000 232.415 C 202.000 232.209,201.685 231.856,201.300 231.632 C 200.915 231.408,200.729 231.219,200.888 231.212 C 201.046 231.205,200.597 230.570,199.890 229.800 C 198.446 228.226,197.235 228.012,196.493 229.200 " stroke="none" fill="#13444b" fill-rule="evenodd"></path><path id="path2" d="M187.452 91.009 C 187.204 91.656,187.098 91.685,186.785 91.189 C 186.557 90.830,186.410 90.786,186.406 91.076 C 186.397 91.773,187.204 92.156,187.680 91.680 C 187.905 91.455,188.013 91.038,187.918 90.755 C 187.806 90.417,187.645 90.505,187.452 91.009 M184.511 94.900 C 183.649 96.014,183.554 96.393,184.196 96.146 C 184.547 96.011,184.740 95.806,184.623 95.690 C 184.507 95.574,184.725 95.242,185.106 94.952 C 185.488 94.663,185.597 94.420,185.349 94.413 C 185.101 94.406,184.724 94.625,184.511 94.900 M182.460 97.180 C 182.548 97.444,182.751 97.647,182.910 97.630 C 183.388 97.581,183.296 97.032,182.780 96.860 C 182.516 96.772,182.372 96.916,182.460 97.180 M181.337 99.870 C 181.486 100.019,181.223 100.550,180.754 101.049 L 179.900 101.958 180.760 101.893 C 181.281 101.854,181.542 101.625,181.422 101.314 C 181.314 101.031,181.399 100.800,181.613 100.800 C 181.826 100.800,182.000 100.530,182.000 100.200 C 182.000 99.870,181.790 99.600,181.533 99.600 C 181.277 99.600,181.188 99.722,181.337 99.870 M178.881 103.997 C 178.507 104.656,178.065 105.196,177.900 105.197 C 177.735 105.199,177.600 105.363,177.600 105.562 C 177.600 106.462,179.550 104.923,179.699 103.905 C 179.907 102.491,179.727 102.512,178.881 103.997 M176.096 108.395 C 175.422 109.475,175.490 109.979,176.186 109.060 C 176.536 108.599,176.945 108.439,177.273 108.637 C 177.681 108.882,177.676 108.801,177.251 108.277 C 176.582 107.452,176.692 107.441,176.096 108.395 M174.935 110.268 C 175.082 110.416,174.928 110.956,174.592 111.468 C 173.701 112.828,174.197 112.609,175.200 111.200 C 175.967 110.123,175.983 110.000,175.361 110.000 C 174.979 110.000,174.787 110.121,174.935 110.268 M172.694 113.439 C 172.563 113.571,172.558 113.946,172.683 114.273 C 172.869 114.757,172.974 114.768,173.250 114.334 C 173.839 113.403,173.414 112.719,172.694 113.439 M170.000 118.245 C 170.000 118.626,169.698 119.270,169.329 119.678 C 168.821 120.240,168.771 120.531,169.123 120.883 C 169.659 121.419,170.002 121.181,170.199 120.137 C 170.276 119.731,170.366 119.400,170.400 119.400 C 170.678 119.400,170.647 117.952,170.364 117.778 C 170.164 117.654,170.000 117.864,170.000 118.245 M167.418 122.229 C 166.757 123.237,166.761 123.249,167.583 122.809 C 168.045 122.562,168.305 122.170,168.161 121.937 C 167.990 121.660,168.227 121.607,168.850 121.783 C 169.583 121.991,169.663 121.956,169.200 121.632 C 168.336 121.028,168.168 121.084,167.418 122.229 M166.340 124.916 C 165.095 125.989,164.406 127.726,165.372 127.356 C 165.715 127.224,165.897 126.957,165.776 126.761 C 165.656 126.566,166.028 125.936,166.603 125.361 C 167.911 124.052,167.720 123.727,166.340 124.916 M163.280 129.280 C 163.016 129.544,162.800 129.994,162.800 130.280 C 162.800 130.566,162.614 130.800,162.387 130.800 C 161.368 130.800,161.304 132.569,162.304 133.088 C 163.670 133.796,163.847 133.728,162.814 132.892 L 161.940 132.184 162.799 131.092 C 163.272 130.491,163.510 129.994,163.329 129.987 C 163.148 129.980,163.349 129.710,163.776 129.387 C 164.204 129.064,164.375 128.800,164.156 128.800 C 163.938 128.800,163.544 129.016,163.280 129.280 M160.281 134.237 C 159.555 135.211,159.751 135.472,160.739 134.846 C 161.036 134.658,161.216 134.227,161.139 133.889 C 161.031 133.411,160.839 133.489,160.281 134.237 M156.488 140.407 C 156.190 140.886,156.160 141.252,156.408 141.405 C 156.624 141.538,156.800 141.382,156.800 141.057 C 156.800 140.732,157.016 140.395,157.280 140.307 C 157.579 140.207,157.609 140.053,157.360 139.899 C 157.140 139.763,156.748 139.992,156.488 140.407 M155.000 142.531 C 154.780 142.806,154.541 143.293,154.468 143.612 C 154.395 143.931,154.180 144.289,153.989 144.407 C 153.797 144.525,153.812 144.885,154.021 145.211 C 154.337 145.702,154.458 145.710,154.752 145.255 C 155.048 144.794,155.137 144.794,155.320 145.255 C 155.477 145.649,155.546 145.616,155.568 145.133 C 155.586 144.767,155.410 144.403,155.177 144.326 C 154.945 144.248,154.873 143.874,155.019 143.495 C 155.165 143.115,155.445 142.904,155.642 143.026 C 155.839 143.148,156.000 142.967,156.000 142.624 C 156.000 141.880,155.554 141.838,155.000 142.531 M152.800 146.600 C 152.800 146.930,152.622 147.200,152.404 147.200 C 152.187 147.200,152.043 147.611,152.085 148.114 C 152.220 149.756,153.399 149.221,153.408 147.514 C 153.412 146.681,153.277 146.000,153.108 146.000 C 152.938 146.000,152.800 146.270,152.800 146.600 M150.613 150.021 C 150.711 150.180,150.523 150.532,150.196 150.804 C 149.452 151.421,149.438 151.852,150.155 152.127 C 150.544 152.277,150.649 152.110,150.508 151.570 C 150.378 151.071,150.511 150.800,150.887 150.800 C 151.206 150.800,151.467 150.560,151.467 150.267 C 151.467 149.973,151.235 149.733,150.951 149.733 C 150.667 149.733,150.515 149.863,150.613 150.021 M147.335 155.024 C 147.006 155.883,147.282 156.022,148.112 155.415 C 148.738 154.957,148.748 154.866,148.197 154.654 C 147.829 154.513,147.473 154.666,147.335 155.024 M144.643 159.833 C 144.493 160.223,144.582 160.406,144.875 160.308 C 145.473 160.109,145.802 159.200,145.276 159.200 C 145.061 159.200,144.776 159.485,144.643 159.833 M196.999 160.001 C 196.863 160.222,195.943 160.770,194.956 161.220 C 193.968 161.670,193.065 162.286,192.949 162.588 C 192.641 163.391,191.522 163.709,191.097 163.114 C 190.842 162.756,190.786 162.856,190.913 163.444 C 191.045 164.052,190.788 164.471,189.997 164.938 C 189.393 165.295,188.338 166.085,187.654 166.694 C 186.970 167.302,185.672 168.340,184.771 169.000 C 183.870 169.660,182.613 170.695,181.980 171.300 C 181.346 171.905,180.707 172.400,180.560 172.400 C 180.414 172.400,179.963 172.781,179.559 173.247 C 179.097 173.780,178.576 174.000,178.155 173.838 C 177.595 173.623,177.569 173.680,177.992 174.191 C 178.407 174.690,178.390 174.800,177.898 174.800 C 177.188 174.800,176.173 175.906,176.543 176.276 C 176.685 176.418,177.565 175.921,178.500 175.172 C 179.435 174.424,180.470 173.597,180.800 173.334 C 181.130 173.072,182.930 171.628,184.800 170.125 C 194.863 162.037,197.628 160.131,198.520 160.665 C 198.809 160.839,198.782 160.684,198.451 160.277 C 197.827 159.507,197.359 159.419,196.999 160.001 M202.524 163.477 C 202.860 164.021,206.000 166.555,206.000 166.282 C 206.000 166.180,205.153 165.403,204.119 164.555 C 203.084 163.707,202.366 163.222,202.524 163.477 M140.137 167.517 C 140.011 168.003,139.767 168.400,139.596 168.400 C 139.425 168.400,139.182 168.670,139.055 169.000 C 138.929 169.330,138.995 169.600,139.202 169.600 C 139.691 169.600,140.935 167.202,140.614 166.880 C 140.479 166.745,140.264 167.032,140.137 167.517 M138.136 170.296 C 138.279 170.527,138.115 170.824,137.772 170.955 C 137.430 171.087,137.252 171.361,137.378 171.565 C 137.504 171.769,137.323 172.220,136.975 172.568 C 136.490 173.053,136.469 173.200,136.883 173.200 C 137.179 173.200,137.730 172.840,138.107 172.400 C 138.745 171.655,138.746 171.600,138.120 171.600 C 137.522 171.600,137.529 171.540,138.184 171.061 C 138.760 170.640,138.807 170.451,138.399 170.199 C 138.072 169.997,137.974 170.034,138.136 170.296 M210.924 170.277 C 211.260 170.821,214.400 173.355,214.400 173.082 C 214.400 172.980,213.553 172.203,212.519 171.355 C 211.484 170.507,210.766 170.022,210.924 170.277 M174.676 176.960 C 174.114 177.523,172.946 178.482,172.082 179.091 C 169.586 180.852,163.463 185.706,162.753 186.488 C 162.397 186.880,161.947 187.204,161.753 187.209 C 161.559 187.214,160.744 187.799,159.941 188.509 C 157.386 190.770,156.608 191.386,156.299 191.393 C 156.133 191.397,155.548 191.923,154.999 192.562 C 154.449 193.201,154.000 193.591,154.000 193.429 C 154.000 193.063,150.721 195.584,150.280 196.289 C 150.104 196.570,149.761 196.800,149.518 196.800 C 149.275 196.800,147.489 198.150,145.549 199.800 C 143.609 201.450,141.903 202.800,141.758 202.800 C 141.613 202.800,141.203 203.126,140.847 203.525 C 140.491 203.924,139.345 204.833,138.300 205.544 C 137.255 206.256,136.400 207.031,136.400 207.266 C 136.400 207.505,135.964 207.610,135.412 207.504 C 134.869 207.401,134.518 207.467,134.633 207.653 C 134.920 208.118,133.979 209.003,129.800 212.198 C 127.820 213.712,125.770 215.367,125.245 215.876 C 124.720 216.384,124.125 216.800,123.922 216.800 C 123.719 216.800,122.799 217.507,121.877 218.371 C 120.954 219.236,120.059 219.949,119.886 219.957 C 119.713 219.965,119.292 220.251,118.951 220.592 C 118.610 220.933,117.671 221.704,116.865 222.306 C 116.059 222.907,115.165 223.715,114.877 224.100 C 114.590 224.485,114.161 224.800,113.924 224.800 C 113.688 224.800,113.202 225.115,112.846 225.500 C 112.490 225.885,111.569 226.642,110.799 227.182 C 109.273 228.253,109.186 228.319,107.342 229.794 C 106.650 230.347,105.765 230.800,105.376 230.800 C 104.986 230.800,104.787 230.920,104.934 231.068 C 105.875 232.009,103.018 233.208,101.999 232.300 C 101.530 231.881,101.516 231.904,101.916 232.437 C 102.178 232.787,102.260 233.221,102.097 233.401 C 101.933 233.581,102.038 233.591,102.330 233.422 C 102.766 233.170,102.768 233.262,102.345 233.940 C 102.062 234.393,101.756 234.689,101.665 234.599 C 101.575 234.508,101.184 234.826,100.796 235.304 C 100.242 235.988,99.972 236.075,99.532 235.710 C 99.140 235.384,98.798 235.370,98.387 235.661 C 97.904 236.002,97.924 236.036,98.500 235.850 C 99.351 235.576,99.445 236.331,98.600 236.655 C 97.951 236.904,97.791 237.823,98.337 238.161 C 98.522 238.276,101.642 235.991,105.271 233.085 C 108.899 230.178,112.461 227.350,113.187 226.800 C 113.913 226.250,114.819 225.530,115.200 225.200 C 115.581 224.870,116.482 224.150,117.201 223.600 C 117.920 223.050,120.430 221.070,122.778 219.200 C 126.540 216.203,131.940 211.928,148.042 199.200 C 150.408 197.330,153.031 195.260,153.870 194.600 C 154.710 193.940,159.760 189.947,165.093 185.726 C 170.426 181.506,175.189 177.773,175.678 177.430 C 176.318 176.982,176.446 176.686,176.133 176.373 C 175.820 176.060,175.412 176.225,174.676 176.960 M134.133 176.922 C 134.133 177.222,134.378 177.467,134.678 177.467 C 134.977 177.467,135.161 177.283,135.086 177.058 C 134.874 176.421,134.133 176.315,134.133 176.922 M132.803 179.592 C 132.534 180.242,132.063 180.981,131.757 181.236 C 131.451 181.490,131.214 181.991,131.232 182.349 C 131.256 182.850,131.314 182.871,131.485 182.438 C 131.940 181.290,133.510 179.243,133.750 179.484 C 133.888 179.621,134.000 179.534,134.000 179.290 C 134.000 178.300,133.261 178.486,132.803 179.592 M129.073 184.955 C 128.923 185.344,129.090 185.449,129.630 185.308 C 130.516 185.076,130.674 184.400,129.843 184.400 C 129.536 184.400,129.190 184.650,129.073 184.955 M127.378 188.035 C 127.231 188.274,127.310 188.670,127.555 188.915 C 127.800 189.160,128.014 189.279,128.031 189.180 C 128.047 189.081,128.122 188.685,128.195 188.300 C 128.343 187.527,127.801 187.351,127.378 188.035 M125.300 191.823 C 124.711 192.463,124.662 192.800,125.157 192.800 C 125.498 192.800,126.137 191.596,125.909 191.383 C 125.849 191.327,125.575 191.525,125.300 191.823 M123.294 194.574 C 123.455 194.765,123.276 195.149,122.894 195.428 C 121.908 196.149,122.575 196.603,123.583 195.897 C 124.374 195.343,124.381 195.284,123.709 194.769 C 123.319 194.471,123.132 194.383,123.294 194.574 M120.496 199.195 C 119.866 200.203,119.871 200.425,120.516 200.177 C 120.799 200.068,121.058 199.624,121.091 199.190 C 121.165 198.207,121.113 198.208,120.496 199.195 M250.800 202.525 C 250.800 202.594,251.385 203.179,252.100 203.825 L 253.400 205.000 252.225 203.700 C 251.130 202.488,250.800 202.216,250.800 202.525 M114.103 209.983 C 113.593 210.800,113.934 211.342,114.665 210.874 C 114.899 210.723,114.978 210.286,114.841 209.901 C 114.609 209.255,114.554 209.261,114.103 209.983 M107.742 219.900 C 107.641 220.285,107.584 220.760,107.614 220.955 C 107.644 221.151,107.428 221.479,107.134 221.686 C 106.709 221.984,106.722 222.028,107.200 221.897 C 107.530 221.807,107.822 221.523,107.850 221.267 C 107.878 221.010,107.936 220.755,107.981 220.700 C 108.185 220.446,108.307 219.200,108.127 219.200 C 108.016 219.200,107.843 219.515,107.742 219.900 M272.524 220.277 C 272.860 220.821,276.000 223.355,276.000 223.082 C 276.000 222.980,275.153 222.203,274.119 221.355 C 273.084 220.507,272.366 220.022,272.524 220.277 M105.456 223.478 C 105.075 223.859,105.147 224.800,105.557 224.800 C 106.048 224.800,106.442 223.673,106.038 223.424 C 105.859 223.313,105.596 223.337,105.456 223.478 M277.200 224.106 C 277.200 224.194,277.965 224.874,278.900 225.617 C 279.835 226.360,280.346 226.652,280.036 226.265 C 279.451 225.537,277.200 223.823,277.200 224.106 M104.750 225.400 C 104.722 225.510,104.678 225.787,104.650 226.015 C 104.623 226.243,104.420 226.558,104.200 226.715 C 103.623 227.126,102.709 228.843,102.943 229.076 C 103.052 229.185,103.429 228.718,103.781 228.037 C 104.133 227.357,104.585 226.800,104.785 226.800 C 104.986 226.800,105.123 226.440,105.090 226.000 C 105.034 225.250,104.863 224.949,104.750 225.400 M99.668 233.327 C 98.771 234.283,98.495 235.036,99.203 234.598 C 99.424 234.461,99.713 234.630,99.845 234.972 C 99.976 235.315,100.246 235.495,100.445 235.372 C 100.644 235.249,100.515 234.858,100.159 234.502 C 99.562 233.905,99.567 233.813,100.226 233.331 C 100.620 233.044,100.850 232.717,100.739 232.606 C 100.628 232.494,100.146 232.819,99.668 233.327 " stroke="none" fill="#2c7c7c" fill-rule="evenodd"></path><path id="path3" d="M97.352 236.981 C 97.229 237.301,97.415 237.971,97.764 238.470 C 98.260 239.178,98.400 239.232,98.400 238.713 C 98.400 238.347,98.228 237.941,98.017 237.811 C 97.807 237.681,97.736 237.310,97.860 236.987 C 97.984 236.664,97.971 236.400,97.830 236.400 C 97.690 236.400,97.474 236.662,97.352 236.981 " stroke="none" fill="#24747c" fill-rule="evenodd"></path><path id="path4" d="M196.512 161.370 C 195.244 162.072,194.331 162.782,177.000 176.532 C 172.820 179.848,167.780 183.843,165.800 185.409 C 159.029 190.765,133.007 211.353,127.400 215.791 C 124.320 218.229,117.512 223.638,112.272 227.812 C 107.032 231.985,101.777 236.145,100.595 237.056 C 99.413 237.967,98.552 238.819,98.682 238.949 C 98.812 239.079,99.592 238.604,100.414 237.893 C 102.397 236.178,103.926 234.949,113.388 227.457 C 117.795 223.969,122.030 220.615,122.800 220.004 C 123.570 219.394,128.610 215.403,134.000 211.137 C 149.011 199.254,160.906 189.826,175.600 178.166 C 198.787 159.767,198.022 160.292,199.601 161.700 C 200.078 162.125,200.082 162.096,199.632 161.500 C 199.028 160.702,197.810 160.652,196.512 161.370 M200.400 162.132 C 200.400 162.237,202.684 164.178,205.476 166.446 C 208.267 168.713,210.424 170.363,210.270 170.113 C 210.115 169.862,208.243 168.249,206.109 166.529 C 200.443 161.958,200.400 161.925,200.400 162.132 M210.816 170.673 C 210.831 170.999,214.400 173.774,214.400 173.461 C 214.400 173.370,213.590 172.633,212.600 171.821 C 211.610 171.010,210.807 170.493,210.816 170.673 M214.824 173.903 C 214.838 174.066,217.763 176.506,221.324 179.325 C 224.886 182.144,227.159 183.854,226.375 183.125 C 224.071 180.982,214.798 173.579,214.824 173.903 M228.000 184.525 C 228.000 184.623,228.855 185.391,229.900 186.232 C 230.945 187.072,231.440 187.345,231.000 186.837 C 230.174 185.883,228.000 184.208,228.000 184.525 M234.024 189.500 C 234.037 189.665,236.512 191.767,239.524 194.172 C 242.536 196.576,244.761 198.252,244.470 197.895 C 243.688 196.938,233.996 189.149,234.024 189.500 M245.200 198.525 C 245.200 198.623,246.055 199.391,247.100 200.232 C 248.145 201.072,248.640 201.345,248.200 200.837 C 247.374 199.883,245.200 198.208,245.200 198.525 M249.215 201.866 C 249.224 202.050,249.899 202.688,250.715 203.285 C 251.532 203.882,252.830 204.850,253.600 205.437 L 255.000 206.503 253.600 205.243 C 251.082 202.976,249.200 201.526,249.215 201.866 M255.219 206.707 C 255.230 206.868,257.435 208.753,260.119 210.896 C 262.804 213.038,265.675 215.351,266.500 216.034 C 267.325 216.718,267.998 217.125,267.995 216.939 C 267.992 216.752,267.468 216.240,266.831 215.800 C 266.194 215.360,263.316 213.068,260.436 210.707 C 257.556 208.345,255.209 206.545,255.219 206.707 M268.524 217.477 C 268.860 218.021,272.000 220.555,272.000 220.282 C 272.000 220.180,271.153 219.403,270.119 218.555 C 269.084 217.707,268.366 217.222,268.524 217.477 M272.400 220.629 C 272.400 220.911,272.817 221.279,274.900 222.833 C 276.663 224.149,276.168 223.434,274.200 221.821 C 273.210 221.010,272.400 220.474,272.400 220.629 M276.424 223.851 C 276.444 224.143,279.565 226.742,288.122 233.592 C 288.803 234.137,289.237 234.383,289.086 234.138 C 288.934 233.893,286.963 232.201,284.705 230.377 C 282.447 228.553,279.655 226.260,278.500 225.282 C 277.345 224.303,276.411 223.660,276.424 223.851 M289.600 234.548 C 289.600 234.707,290.050 235.286,290.600 235.836 C 291.150 236.386,291.600 236.680,291.600 236.488 C 291.600 236.296,291.150 235.717,290.600 235.200 C 290.050 234.683,289.600 234.390,289.600 234.548 " stroke="none" fill="#216b6c" fill-rule="evenodd"></path></g></svg>